%FSTAX23Y23*%
%MOIN*%
%SFA1B1*%

%IPPOS*%
%ADD18C,0.002000*%
%LNzx-joy-1*%
%LPD*%
G54D18*
X00782Y0065D02*
X00817D01*
X008Y00632D02*
Y00667D01*
X00782Y0055D02*
X00817D01*
X008Y00532D02*
Y00567D01*
X00682Y0065D02*
X00717D01*
X007Y00632D02*
Y00667D01*
X00682Y0055D02*
X00717D01*
X007Y00532D02*
Y00567D01*
X00582Y0065D02*
X00617D01*
X006Y00632D02*
Y00667D01*
X00582Y0055D02*
X00617D01*
X006Y00532D02*
Y00567D01*
X00482Y0065D02*
X00517D01*
X005Y00632D02*
Y00667D01*
X00482Y0055D02*
X00517D01*
X005Y00532D02*
Y00567D01*
X00382Y0065D02*
X00417D01*
X004Y00632D02*
Y00667D01*
X00382Y0055D02*
X00417D01*
X004Y00532D02*
Y00567D01*
X00282Y0065D02*
X00317D01*
X003Y00632D02*
Y00667D01*
X00282Y0055D02*
X00317D01*
X003Y00532D02*
Y00567D01*
X00182Y0065D02*
X00217D01*
X002Y00632D02*
Y00667D01*
X00182Y0055D02*
X00217D01*
X002Y00532D02*
Y00567D01*
X00082Y0065D02*
X00117D01*
X001Y00632D02*
Y00667D01*
X00082Y0055D02*
X00117D01*
X001Y00532D02*
Y00567D01*
X00982Y0055D02*
X01017D01*
X01Y00532D02*
Y00567D01*
X00982Y0065D02*
X01017D01*
X01Y00632D02*
Y00667D01*
X01082Y0055D02*
X01117D01*
X011Y00532D02*
Y00567D01*
X01082Y0065D02*
X01117D01*
X011Y00632D02*
Y00667D01*
X01182Y0055D02*
X01217D01*
X012Y00532D02*
Y00567D01*
X01182Y0065D02*
X01217D01*
X012Y00632D02*
Y00667D01*
X01282Y0055D02*
X01317D01*
X013Y00532D02*
Y00567D01*
X01282Y0065D02*
X01317D01*
X013Y00632D02*
Y00667D01*
X01382Y0055D02*
X01417D01*
X014Y00532D02*
Y00567D01*
X01382Y0065D02*
X01417D01*
X014Y00632D02*
Y00667D01*
X00082Y0015D02*
X00117D01*
X001Y00132D02*
Y00167D01*
X00082Y0025D02*
X00117D01*
X001Y00232D02*
Y00267D01*
X00182Y0015D02*
X00217D01*
X002Y00132D02*
Y00167D01*
X00182Y0025D02*
X00217D01*
X002Y00232D02*
Y00267D01*
X00282Y0015D02*
X00317D01*
X003Y00132D02*
Y00167D01*
X00282Y0025D02*
X00317D01*
X003Y00232D02*
Y00267D01*
X00382Y0015D02*
X00417D01*
X004Y00132D02*
Y00167D01*
X00382Y0025D02*
X00417D01*
X004Y00232D02*
Y00267D01*
X00482Y0015D02*
X00517D01*
X005Y00132D02*
Y00167D01*
X00482Y0025D02*
X00517D01*
X005Y00232D02*
Y00267D01*
X00582Y0015D02*
X00617D01*
X006Y00132D02*
Y00167D01*
X00582Y0025D02*
X00617D01*
X006Y00232D02*
Y00267D01*
X00682Y0015D02*
X00717D01*
X007Y00132D02*
Y00167D01*
X00682Y0025D02*
X00717D01*
X007Y00232D02*
Y00267D01*
X00782Y0015D02*
X00817D01*
X008Y00132D02*
Y00167D01*
X00782Y0025D02*
X00817D01*
X008Y00232D02*
Y00267D01*
X00882Y0015D02*
X00917D01*
X009Y00132D02*
Y00167D01*
X00882Y0025D02*
X00917D01*
X009Y00232D02*
Y00267D01*
X00982Y0015D02*
X01017D01*
X01Y00132D02*
Y00167D01*
X00982Y0025D02*
X01017D01*
X01Y00232D02*
Y00267D01*
X01082Y0015D02*
X01117D01*
X011Y00132D02*
Y00167D01*
X01082Y0025D02*
X01117D01*
X011Y00232D02*
Y00267D01*
X01182Y0015D02*
X01217D01*
X012Y00132D02*
Y00167D01*
X01182Y0025D02*
X01217D01*
X012Y00232D02*
Y00267D01*
X01282Y0015D02*
X01317D01*
X013Y00132D02*
Y00167D01*
X01282Y0025D02*
X01317D01*
X013Y00232D02*
Y00267D01*
X01382Y0015D02*
X01417D01*
X014Y00132D02*
Y00167D01*
X01382Y0025D02*
X01417D01*
X014Y00232D02*
Y00267D01*
X01482Y0015D02*
X01517D01*
X015Y00132D02*
Y00167D01*
X01482Y0025D02*
X01517D01*
X015Y00232D02*
Y00267D01*
X01582Y0015D02*
X01617D01*
X016Y00132D02*
Y00167D01*
X01582Y0025D02*
X01617D01*
X016Y00232D02*
Y00267D01*
X01682Y0015D02*
X01717D01*
X017Y00132D02*
Y00167D01*
X01682Y0025D02*
X01717D01*
X017Y00232D02*
Y00267D01*
X01782Y0015D02*
X01817D01*
X018Y00132D02*
Y00167D01*
X01782Y0025D02*
X01817D01*
X018Y00232D02*
Y00267D01*
X01882Y0015D02*
X01917D01*
X019Y00132D02*
Y00167D01*
X01882Y0025D02*
X01917D01*
X019Y00232D02*
Y00267D01*
X01982Y0015D02*
X02017D01*
X02Y00132D02*
Y00167D01*
X01982Y0025D02*
X02017D01*
X02Y00232D02*
Y00267D01*
X01582Y0055D02*
X01617D01*
X016Y00532D02*
Y00567D01*
X01582Y0065D02*
X01617D01*
X016Y00632D02*
Y00667D01*
X01682Y0055D02*
X01717D01*
X017Y00532D02*
Y00567D01*
X01682Y0065D02*
X01717D01*
X017Y00632D02*
Y00667D01*
X01782Y0055D02*
X01817D01*
X018Y00532D02*
Y00567D01*
X01782Y0065D02*
X01817D01*
X018Y00632D02*
Y00667D01*
X01882Y0055D02*
X01917D01*
X019Y00532D02*
Y00567D01*
X01882Y0065D02*
X01917D01*
X019Y00632D02*
Y00667D01*
X01982Y0055D02*
X02017D01*
X02Y00532D02*
Y00567D01*
X01982Y0065D02*
X02017D01*
X02Y00632D02*
Y00667D01*
M02*