%FSTAX23Y23*%
%MOIN*%
%SFA1B1*%

%IPPOS*%
%ADD18C,0.002000*%
%ADD19C,0.009000*%
%ADD20C,0.014400*%
%LNzx-joy-1*%
%LPD*%
G54D18*
X00792Y00642D02*
Y00658D01*
X00808*
Y00642*
X00792*
Y00542D02*
Y00558D01*
X00808*
Y00542*
X00792*
X00692Y00642D02*
Y00658D01*
X00708*
Y00642*
X00692*
Y00542D02*
Y00558D01*
X00708*
Y00542*
X00692*
X00592Y00642D02*
Y00658D01*
X00608*
Y00642*
X00592*
Y00542D02*
Y00558D01*
X00608*
Y00542*
X00592*
X00492Y00642D02*
Y00658D01*
X00508*
Y00642*
X00492*
Y00542D02*
Y00558D01*
X00508*
Y00542*
X00492*
X00392Y00642D02*
Y00658D01*
X00408*
Y00642*
X00392*
Y00542D02*
Y00558D01*
X00408*
Y00542*
X00392*
X00292Y00642D02*
Y00658D01*
X00308*
Y00642*
X00292*
Y00542D02*
Y00558D01*
X00308*
Y00542*
X00292*
X00192Y00642D02*
Y00658D01*
X00208*
Y00642*
X00192*
Y00542D02*
Y00558D01*
X00208*
Y00542*
X00192*
X00092Y00642D02*
Y00658D01*
X00108*
Y00642*
X00092*
Y00542D02*
Y00558D01*
X00108*
Y00542*
X00092*
X00992D02*
Y00558D01*
X01008*
Y00542*
X00992*
Y00642D02*
Y00658D01*
X01008*
Y00642*
X00992*
X01092Y00542D02*
Y00558D01*
X01108*
Y00542*
X01092*
Y00642D02*
Y00658D01*
X01108*
Y00642*
X01092*
X01192Y00542D02*
Y00558D01*
X01208*
Y00542*
X01192*
Y00642D02*
Y00658D01*
X01208*
Y00642*
X01192*
X01292Y00542D02*
Y00558D01*
X01308*
Y00542*
X01292*
Y00642D02*
Y00658D01*
X01308*
Y00642*
X01292*
X01392Y00542D02*
Y00558D01*
X01408*
Y00542*
X01392*
Y00642D02*
Y00658D01*
X01408*
Y00642*
X01392*
X00092Y00142D02*
Y00158D01*
X00108*
Y00142*
X00092*
Y00242D02*
Y00258D01*
X00108*
Y00242*
X00092*
X00192Y00142D02*
Y00158D01*
X00208*
Y00142*
X00192*
Y00242D02*
Y00258D01*
X00208*
Y00242*
X00192*
X00292Y00142D02*
Y00158D01*
X00308*
Y00142*
X00292*
Y00242D02*
Y00258D01*
X00308*
Y00242*
X00292*
X00392Y00142D02*
Y00158D01*
X00408*
Y00142*
X00392*
Y00242D02*
Y00258D01*
X00408*
Y00242*
X00392*
X00492Y00142D02*
Y00158D01*
X00508*
Y00142*
X00492*
Y00242D02*
Y00258D01*
X00508*
Y00242*
X00492*
X00592Y00142D02*
Y00158D01*
X00608*
Y00142*
X00592*
Y00242D02*
Y00258D01*
X00608*
Y00242*
X00592*
X00692Y00142D02*
Y00158D01*
X00708*
Y00142*
X00692*
Y00242D02*
Y00258D01*
X00708*
Y00242*
X00692*
X00792Y00142D02*
Y00158D01*
X00808*
Y00142*
X00792*
Y00242D02*
Y00258D01*
X00808*
Y00242*
X00792*
X00892Y00142D02*
Y00158D01*
X00908*
Y00142*
X00892*
Y00242D02*
Y00258D01*
X00908*
Y00242*
X00892*
X00992Y00142D02*
Y00158D01*
X01008*
Y00142*
X00992*
Y00242D02*
Y00258D01*
X01008*
Y00242*
X00992*
X01092Y00142D02*
Y00158D01*
X01108*
Y00142*
X01092*
Y00242D02*
Y00258D01*
X01108*
Y00242*
X01092*
X01192Y00142D02*
Y00158D01*
X01208*
Y00142*
X01192*
Y00242D02*
Y00258D01*
X01208*
Y00242*
X01192*
X01292Y00142D02*
Y00158D01*
X01308*
Y00142*
X01292*
Y00242D02*
Y00258D01*
X01308*
Y00242*
X01292*
X01392Y00142D02*
Y00158D01*
X01408*
Y00142*
X01392*
Y00242D02*
Y00258D01*
X01408*
Y00242*
X01392*
X01492Y00142D02*
Y00158D01*
X01508*
Y00142*
X01492*
Y00242D02*
Y00258D01*
X01508*
Y00242*
X01492*
X01592Y00142D02*
Y00158D01*
X01608*
Y00142*
X01592*
Y00242D02*
Y00258D01*
X01608*
Y00242*
X01592*
X01692Y00142D02*
Y00158D01*
X01708*
Y00142*
X01692*
Y00242D02*
Y00258D01*
X01708*
Y00242*
X01692*
X01792Y00142D02*
Y00158D01*
X01808*
Y00142*
X01792*
Y00242D02*
Y00258D01*
X01808*
Y00242*
X01792*
X01892Y00142D02*
Y00158D01*
X01908*
Y00142*
X01892*
Y00242D02*
Y00258D01*
X01908*
Y00242*
X01892*
X01992Y00142D02*
Y00158D01*
X02008*
Y00142*
X01992*
Y00242D02*
Y00258D01*
X02008*
Y00242*
X01992*
X01592Y00542D02*
Y00558D01*
X01608*
Y00542*
X01592*
Y00642D02*
Y00658D01*
X01608*
Y00642*
X01592*
X01692Y00542D02*
Y00558D01*
X01708*
Y00542*
X01692*
Y00642D02*
Y00658D01*
X01708*
Y00642*
X01692*
X01792Y00542D02*
Y00558D01*
X01808*
Y00542*
X01792*
Y00642D02*
Y00658D01*
X01808*
Y00642*
X01792*
X01892Y00542D02*
Y00558D01*
X01908*
Y00542*
X01892*
Y00642D02*
Y00658D01*
X01908*
Y00642*
X01892*
X01992Y00542D02*
Y00558D01*
X02008*
Y00542*
X01992*
Y00642D02*
Y00658D01*
X02008*
Y00642*
X01992*
X02885Y00109D02*
Y00181D01*
X02957*
Y00109*
X02885*
G54D19*
X02885Y-0014D02*
Y-0023D01*
Y-0014D02*
X02914D01*
X02927Y-00144*
X02936Y-00152*
X0294Y-00161*
X02944Y-00174*
Y-00195*
X0294Y-00208*
X02936Y-00217*
X02927Y-00225*
X02914Y-0023*
X02885*
X02965Y-0017D02*
Y-0023D01*
Y-00195D02*
X02969Y-00182D01*
X02977Y-00174*
X02986Y-0017*
X02999*
X03016Y-0014D02*
X0302Y-00144D01*
X03024Y-0014*
X0302Y-00135*
X03016Y-0014*
X0302Y-0017D02*
Y-0023D01*
X0304Y-0014D02*
Y-0023D01*
X03059Y-0014D02*
Y-0023D01*
X03086Y-0014D02*
X03091Y-00144D01*
X03095Y-0014*
X03091Y-00135*
X03086Y-0014*
X03091Y-0017D02*
Y-0023D01*
X03111Y-0017D02*
Y-0023D01*
Y-00187D02*
X03124Y-00174D01*
X03132Y-0017*
X03145*
X03154Y-00174*
X03158Y-00187*
Y-0023*
X03233Y-0017D02*
Y-00238D01*
X03229Y-00251*
X03224Y-00255*
X03216Y-00259*
X03203*
X03194Y-00255*
X03233Y-00182D02*
X03224Y-00174D01*
X03216Y-0017*
X03203*
X03194Y-00174*
X03186Y-00182*
X03181Y-00195*
Y-00204*
X03186Y-00217*
X03194Y-00225*
X03203Y-0023*
X03216*
X03224Y-00225*
X03233Y-00217*
X03328Y-0014D02*
Y-0023D01*
Y-0014D02*
X03358D01*
X0337Y-00144*
X03379Y-00152*
X03383Y-00161*
X03388Y-00174*
Y-00195*
X03383Y-00208*
X03379Y-00217*
X0337Y-00225*
X03358Y-0023*
X03328*
X03408Y-00195D02*
X03459D01*
Y-00187*
X03455Y-00178*
X03451Y-00174*
X03442Y-0017*
X03429*
X03421Y-00174*
X03412Y-00182*
X03408Y-00195*
Y-00204*
X03412Y-00217*
X03421Y-00225*
X03429Y-0023*
X03442*
X03451Y-00225*
X03459Y-00217*
X03491Y-0014D02*
Y-00212D01*
X03496Y-00225*
X03504Y-0023*
X03513*
X03478Y-0017D02*
X03508D01*
X03577D02*
Y-0023D01*
Y-00182D02*
X03568Y-00174D01*
X0356Y-0017*
X03547*
X03538Y-00174*
X0353Y-00182*
X03526Y-00195*
Y-00204*
X0353Y-00217*
X03538Y-00225*
X03547Y-0023*
X0356*
X03568Y-00225*
X03577Y-00217*
X03609Y-0014D02*
X03614Y-00144D01*
X03618Y-0014*
X03614Y-00135*
X03609Y-0014*
X03614Y-0017D02*
Y-0023D01*
X03634Y-0014D02*
Y-0023D01*
X037Y-00182D02*
X03696Y-00174D01*
X03683Y-0017*
X0367*
X03657Y-00174*
X03653Y-00182*
X03657Y-00191*
X03666Y-00195*
X03687Y-002*
X03696Y-00204*
X037Y-00212*
Y-00217*
X03696Y-00225*
X03683Y-0023*
X0367*
X03657Y-00225*
X03653Y-00217*
X03723Y-00221D02*
X03719Y-00225D01*
X03723Y-0023*
X03727Y-00225*
X03723Y-00221*
X03599Y00189D02*
X03556Y001D01*
X03539Y00189D02*
X03599D01*
X03671Y00177D02*
X03666Y00185D01*
X03653Y00189*
X03645*
X03632Y00185*
X03623Y00172*
X03619Y00151*
Y00129*
X03623Y00112*
X03632Y00104*
X03645Y001*
X03649*
X03662Y00104*
X03671Y00112*
X03675Y00125*
Y00129*
X03671Y00142*
X03662Y00151*
X03649Y00155*
X03645*
X03632Y00151*
X03623Y00142*
X03619Y00129*
X0439Y00189D02*
X04438D01*
X04412Y00155*
X04425*
X04433Y00151*
X04438Y00147*
X04442Y00134*
Y00125*
X04438Y00112*
X04429Y00104*
X04416Y001*
X04403*
X0439Y00104*
X04386Y00108*
X04382Y00117*
X04513Y00189D02*
X04471D01*
X04466Y00151*
X04471Y00155*
X04483Y00159*
X04496*
X04509Y00155*
X04518Y00147*
X04522Y00134*
Y00125*
X04518Y00112*
X04509Y00104*
X04496Y001*
X04483*
X04471Y00104*
X04466Y00108*
X04462Y00117*
X04546Y00108D02*
X04542Y00104D01*
X04546Y001*
X04551Y00104*
X04546Y00108*
X04613Y00189D02*
X0457Y00129D01*
X04635*
X04613Y00189D02*
Y001D01*
X04659Y00189D02*
X04706D01*
X0468Y00155*
X04693*
X04702Y00151*
X04706Y00147*
X0471Y00134*
Y00125*
X04706Y00112*
X04698Y00104*
X04685Y001*
X04672*
X04659Y00104*
X04655Y00108*
X04651Y00117*
X04739Y00189D02*
X04786D01*
X04761Y00155*
X04773*
X04782Y00151*
X04786Y00147*
X04791Y00134*
Y00125*
X04786Y00112*
X04778Y00104*
X04765Y001*
X04752*
X04739Y00104*
X04735Y00108*
X04731Y00117*
X04811Y00159D02*
Y001D01*
Y00142D02*
X04824Y00155D01*
X04832Y00159*
X04845*
X04854Y00155*
X04858Y00142*
Y001*
Y00142D02*
X04871Y00155D01*
X04879Y00159*
X04892*
X04901Y00155*
X04905Y00142*
Y001*
X04942Y00189D02*
X04946Y00185D01*
X0495Y00189*
X04946Y00194*
X04942Y00189*
X04946Y00159D02*
Y001D01*
X04966Y00189D02*
Y001D01*
X05086Y00207D02*
X05077Y00198D01*
X05069Y00185*
X0506Y00168*
X05056Y00147*
Y00129*
X0506Y00108*
X05069Y00091*
X05077Y00078*
X05086Y0007*
X05077Y00198D02*
X05069Y00181D01*
X05064Y00168*
X0506Y00147*
Y00129*
X05064Y00108*
X05069Y00095*
X05077Y00078*
X05129Y00189D02*
X05116Y00185D01*
X05107Y00172*
X05103Y00151*
Y00138*
X05107Y00117*
X05116Y00104*
X05129Y001*
X05137*
X0515Y00104*
X05159Y00117*
X05163Y00138*
Y00151*
X05159Y00172*
X0515Y00185*
X05137Y00189*
X05129*
X05187Y00108D02*
X05183Y00104D01*
X05187Y001*
X05192Y00104*
X05187Y00108*
X05267Y00159D02*
X05263Y00147D01*
X05254Y00138*
X05241Y00134*
X05237*
X05224Y00138*
X05216Y00147*
X05211Y00159*
Y00164*
X05216Y00177*
X05224Y00185*
X05237Y00189*
X05241*
X05254Y00185*
X05263Y00177*
X05267Y00159*
Y00138*
X05263Y00117*
X05254Y00104*
X05241Y001*
X05233*
X0522Y00104*
X05216Y00112*
X05292Y00159D02*
Y001D01*
Y00142D02*
X05304Y00155D01*
X05313Y00159*
X05326*
X05334Y00155*
X05339Y00142*
Y001*
Y00142D02*
X05351Y00155D01*
X0536Y00159*
X05373*
X05381Y00155*
X05386Y00142*
Y001*
X05414Y00159D02*
Y001D01*
Y00142D02*
X05427Y00155D01*
X05435Y00159*
X05448*
X05457Y00155*
X05461Y00142*
Y001*
Y00142D02*
X05474Y00155D01*
X05483Y00159*
X05495*
X05504Y00155*
X05508Y00142*
Y001*
X05537Y00207D02*
X05545Y00198D01*
X05554Y00185*
X05562Y00168*
X05567Y00147*
Y00129*
X05562Y00108*
X05554Y00091*
X05545Y00078*
X05537Y0007*
X05545Y00198D02*
X05554Y00181D01*
X05558Y00168*
X05562Y00147*
Y00129*
X05558Y00108*
X05554Y00095*
X05545Y00078*
X05862Y00142D02*
X059D01*
X05913Y00147*
X05917Y00151*
X05922Y00159*
Y00172*
X05917Y00181*
X05913Y00185*
X059Y00189*
X05862*
Y001*
X05972Y00189D02*
Y001D01*
X05942Y00189D02*
X06002D01*
X06013D02*
Y001D01*
X06072Y00189D02*
Y001D01*
X06013Y00147D02*
X06072D01*
X06425Y00189D02*
Y001D01*
Y00189D02*
X06464D01*
X06477Y00185*
X06481Y00181*
X06485Y00172*
Y00164*
X06481Y00155*
X06477Y00151*
X06464Y00147*
X06425*
X06455D02*
X06485Y001D01*
X06527Y00159D02*
X06518Y00155D01*
X0651Y00147*
X06505Y00134*
Y00125*
X0651Y00112*
X06518Y00104*
X06527Y001*
X0654*
X06548Y00104*
X06557Y00112*
X06561Y00125*
Y00134*
X06557Y00147*
X06548Y00155*
X0654Y00159*
X06527*
X06581D02*
Y00117D01*
X06585Y00104*
X06594Y001*
X06606*
X06615Y00104*
X06628Y00117*
Y00159D02*
Y001D01*
X06651Y00159D02*
Y001D01*
Y00142D02*
X06664Y00155D01*
X06673Y00159*
X06686*
X06694Y00155*
X06699Y00142*
Y001*
X06774Y00189D02*
Y001D01*
Y00147D02*
X06765Y00155D01*
X06756Y00159*
X06744*
X06735Y00155*
X06726Y00147*
X06722Y00134*
Y00125*
X06726Y00112*
X06735Y00104*
X06744Y001*
X06756*
X06765Y00104*
X06774Y00112*
X03599Y00009D02*
X03556Y-0008D01*
X03539Y00009D02*
X03599D01*
X03671Y-00002D02*
X03666Y00005D01*
X03653Y00009*
X03645*
X03632Y00005*
X03623Y-00007*
X03619Y-00028*
Y-0005*
X03623Y-00067*
X03632Y-00075*
X03645Y-0008*
X03649*
X03662Y-00075*
X03671Y-00067*
X03675Y-00054*
Y-0005*
X03671Y-00037*
X03662Y-00028*
X03649Y-00024*
X03645*
X03632Y-00028*
X03623Y-00037*
X03619Y-0005*
X03845Y00009D02*
Y-0008D01*
X03815Y00009D02*
X03875D01*
X03907Y-0002D02*
X03899Y-00024D01*
X0389Y-00032*
X03886Y-00045*
Y-00054*
X0389Y-00067*
X03899Y-00075*
X03907Y-0008*
X0392*
X03929Y-00075*
X03937Y-00067*
X03942Y-00054*
Y-00045*
X03937Y-00032*
X03929Y-00024*
X0392Y-0002*
X03907*
X03974Y00009D02*
Y-00062D01*
X03979Y-00075*
X03987Y-0008*
X03996*
X03961Y-0002D02*
X03991D01*
X0406D02*
Y-0008D01*
Y-00032D02*
X04051Y-00024D01*
X04043Y-0002*
X0403*
X04021Y-00024*
X04013Y-00032*
X04009Y-00045*
Y-00054*
X04013Y-00067*
X04021Y-00075*
X0403Y-0008*
X04043*
X04051Y-00075*
X0406Y-00067*
X04084Y00009D02*
Y-0008D01*
G54D20*
X02956Y00408D02*
X02946Y00418D01*
X02931Y00423*
X0291*
X02895Y00418*
X02885Y00408*
Y00398*
X0289Y00387*
X02895Y00382*
X02905Y00377*
X02936Y00367*
X02946Y00362*
X02951Y00357*
X02956Y00346*
Y00331*
X02946Y00321*
X02931Y00316*
X0291*
X02895Y00321*
X02885Y00331*
X02986Y00387D02*
X03017Y00316D01*
X03047Y00387D02*
X03017Y00316D01*
X03006Y00295*
X02996Y00285*
X02986Y0028*
X02981*
X03065Y00387D02*
Y00316D01*
Y00367D02*
X03081Y00382D01*
X03091Y00387*
X03107*
X03117Y00382*
X03122Y00367*
Y00316*
Y00367D02*
X03137Y00382D01*
X03148Y00387*
X03163*
X03173Y00382*
X03179Y00367*
Y00316*
X03213Y00423D02*
Y00316D01*
Y00372D02*
X03223Y00382D01*
X03233Y00387*
X03249*
X03259Y00382*
X03269Y00372*
X03274Y00357*
Y00346*
X03269Y00331*
X03259Y00321*
X03249Y00316*
X03233*
X03223Y00321*
X03213Y00331*
X03323Y00387D02*
X03313Y00382D01*
X03303Y00372*
X03297Y00357*
Y00346*
X03303Y00331*
X03313Y00321*
X03323Y00316*
X03339*
X03349Y00321*
X03359Y00331*
X03364Y00346*
Y00357*
X03359Y00372*
X03349Y00382*
X03339Y00387*
X03323*
X03388Y00423D02*
Y00316D01*
X03539Y00423D02*
Y00316D01*
X03611Y00423D02*
Y00316D01*
X03539Y00372D02*
X03611D01*
X03651Y00423D02*
X03656Y00418D01*
X03661Y00423*
X03656Y00429*
X03651Y00423*
X03656Y00387D02*
Y00316D01*
X03696Y00423D02*
Y00336D01*
X03701Y00321*
X03711Y00316*
X03722*
X0368Y00387D02*
X03716D01*
X03899Y00398D02*
X03894Y00408D01*
X03884Y00418*
X03873Y00423*
X03853*
X03842Y00418*
X03832Y00408*
X03827Y00398*
X03822Y00382*
Y00357*
X03827Y00341*
X03832Y00331*
X03842Y00321*
X03853Y00316*
X03873*
X03884Y00321*
X03894Y00331*
X03899Y00341*
X03955Y00387D02*
X03945Y00382D01*
X03934Y00372*
X03929Y00357*
Y00346*
X03934Y00331*
X03945Y00321*
X03955Y00316*
X0397*
X03981Y00321*
X03991Y00331*
X03996Y00346*
Y00357*
X03991Y00372*
X03981Y00382*
X0397Y00387*
X03955*
X0402D02*
Y00336D01*
X04025Y00321*
X04035Y00316*
X04051*
X04061Y00321*
X04076Y00336*
Y00387D02*
Y00316D01*
X04105Y00387D02*
Y00316D01*
Y00367D02*
X0412Y00382D01*
X0413Y00387*
X04146*
X04156Y00382*
X04161Y00367*
Y00316*
X04205Y00423D02*
Y00336D01*
X0421Y00321*
X0422Y00316*
X04231*
X0419Y00387D02*
X04226D01*
X04382Y00423D02*
Y00316D01*
Y00423D02*
X04449D01*
X04382Y00372D02*
X04423D01*
X04471Y00423D02*
X04476Y00418D01*
X04482Y00423*
X04476Y00429*
X04471Y00423*
X04476Y00387D02*
Y00316D01*
X04501Y00387D02*
Y00316D01*
Y00367D02*
X04516Y00382D01*
X04526Y00387*
X04542*
X04552Y00382*
X04557Y00367*
Y00316*
X04596Y00423D02*
X04601Y00418D01*
X04606Y00423*
X04601Y00429*
X04596Y00423*
X04601Y00387D02*
Y00316D01*
X04682Y00372D02*
X04676Y00382D01*
X04661Y00387*
X04646*
X0463Y00382*
X04625Y00372*
X0463Y00362*
X0464Y00357*
X04666Y00351*
X04676Y00346*
X04682Y00336*
Y00331*
X04676Y00321*
X04661Y00316*
X04646*
X0463Y00321*
X04625Y00331*
X04704Y00423D02*
Y00316D01*
Y00367D02*
X0472Y00382D01*
X0473Y00387*
X04745*
X04756Y00382*
X04761Y00367*
Y00316*
X04789Y00357D02*
X04851D01*
Y00367*
X04846Y00377*
X0484Y00382*
X0483Y00387*
X04815*
X04805Y00382*
X04794Y00372*
X04789Y00357*
Y00346*
X04794Y00331*
X04805Y00321*
X04815Y00316*
X0483*
X0484Y00321*
X04851Y00331*
X04936Y00423D02*
Y00316D01*
Y00372D02*
X04925Y00382D01*
X04915Y00387*
X049*
X04889Y00382*
X04879Y00372*
X04874Y00357*
Y00346*
X04879Y00331*
X04889Y00321*
X049Y00316*
X04915*
X04925Y00321*
X04936Y00331*
X05049Y00423D02*
Y00316D01*
X05121Y00423D02*
Y00316D01*
X05049Y00372D02*
X05121D01*
X05177Y00387D02*
X05166Y00382D01*
X05156Y00372*
X05151Y00357*
Y00346*
X05156Y00331*
X05166Y00321*
X05177Y00316*
X05192*
X05202Y00321*
X05213Y00331*
X05218Y00346*
Y00357*
X05213Y00372*
X05202Y00382*
X05192Y00387*
X05177*
X05242Y00423D02*
Y00316D01*
X05264Y00357D02*
X05326D01*
Y00367*
X05321Y00377*
X05316Y00382*
X05305Y00387*
X0529*
X0528Y00382*
X05269Y00372*
X05264Y00357*
Y00346*
X05269Y00331*
X0528Y00321*
X0529Y00316*
X05305*
X05316Y00321*
X05326Y00331*
X05506Y00408D02*
X05496Y00418D01*
X0548Y00423*
X0546*
X05444Y00418*
X05434Y00408*
Y00398*
X05439Y00387*
X05444Y00382*
X05454Y00377*
X05485Y00367*
X05496Y00362*
X05501Y00357*
X05506Y00346*
Y00331*
X05496Y00321*
X0548Y00316*
X0546*
X05444Y00321*
X05434Y00331*
X0554Y00423D02*
X05545Y00418D01*
X05551Y00423*
X05545Y00429*
X0554Y00423*
X05545Y00387D02*
Y00316D01*
X05626Y00387D02*
X0557Y00316D01*
Y00387D02*
X05626D01*
X0557Y00316D02*
X05626D01*
X05649Y00357D02*
X0571D01*
Y00367*
X05705Y00377*
X057Y00382*
X0569Y00387*
X05674*
X05664Y00382*
X05654Y00372*
X05649Y00357*
Y00346*
X05654Y00331*
X05664Y00321*
X05674Y00316*
X0569*
X057Y00321*
X0571Y00331*
X05862Y00367D02*
X05908D01*
X05923Y00372*
X05929Y00377*
X05934Y00387*
Y00403*
X05929Y00413*
X05923Y00418*
X05908Y00423*
X05862*
Y00316*
X05958Y00423D02*
Y00316D01*
X06042Y00387D02*
Y00316D01*
Y00372D02*
X06032Y00382D01*
X06022Y00387*
X06006*
X05996Y00382*
X05986Y00372*
X0598Y00357*
Y00346*
X05986Y00331*
X05996Y00321*
X06006Y00316*
X06022*
X06032Y00321*
X06042Y00331*
X06086Y00423D02*
Y00336D01*
X06092Y00321*
X06102Y00316*
X06112*
X06071Y00387D02*
X06107D01*
X06128Y00357D02*
X06189D01*
Y00367*
X06184Y00377*
X06179Y00382*
X06169Y00387*
X06153*
X06143Y00382*
X06133Y00372*
X06128Y00357*
Y00346*
X06133Y00331*
X06143Y00321*
X06153Y00316*
X06169*
X06179Y00321*
X06189Y00331*
X06274Y00423D02*
Y00316D01*
Y00372D02*
X06264Y00382D01*
X06253Y00387*
X06238*
X06228Y00382*
X06217Y00372*
X06212Y00357*
Y00346*
X06217Y00331*
X06228Y00321*
X06238Y00316*
X06253*
X06264Y00321*
X06274Y00331*
X06425Y00423D02*
Y00316D01*
X06497Y00423D02*
Y00316D01*
X06425Y00372D02*
X06497D01*
X06553Y00387D02*
X06542Y00382D01*
X06532Y00372*
X06527Y00357*
Y00346*
X06532Y00331*
X06542Y00321*
X06553Y00316*
X06568*
X06578Y00321*
X06589Y00331*
X06594Y00346*
Y00357*
X06589Y00372*
X06578Y00382*
X06568Y00387*
X06553*
X06618Y00423D02*
Y00316D01*
X0664Y00357D02*
X06702D01*
Y00367*
X06697Y00377*
X06692Y00382*
X06681Y00387*
X06666*
X06656Y00382*
X06645Y00372*
X0664Y00357*
Y00346*
X06645Y00331*
X06656Y00321*
X06666Y00316*
X06681*
X06692Y00321*
X06702Y00331*
X06846Y00423D02*
Y00316D01*
X0681Y00423D02*
X06882D01*
X069Y00387D02*
X06931Y00316D01*
X06962Y00387D02*
X06931Y00316D01*
X0692Y00295*
X0691Y00285*
X069Y0028*
X06895*
X0698Y00387D02*
Y0028D01*
Y00372D02*
X0699Y00382D01*
X07Y00387*
X07016*
X07026Y00382*
X07036Y00372*
X07041Y00357*
Y00346*
X07036Y00331*
X07026Y00321*
X07016Y00316*
X07*
X0699Y00321*
X0698Y00331*
X07064Y00357D02*
X07126D01*
Y00367*
X07121Y00377*
X07116Y00382*
X07106Y00387*
X0709*
X0708Y00382*
X0707Y00372*
X07064Y00357*
Y00346*
X0707Y00331*
X0708Y00321*
X0709Y00316*
X07106*
X07116Y00321*
X07126Y00331*
X02762Y00478D02*
X07277D01*
X02762Y00235D02*
X07277D01*
X02762Y00478D02*
Y-00125D01*
X07277Y00478D02*
Y-00125D01*
X03478Y00478D02*
Y-00125D01*
X04321Y00478D02*
Y-00125D01*
X058Y00478D02*
Y-00125D01*
X06364Y00478D02*
Y-00125D01*
X02762Y00055D02*
X07277D01*
X02762Y-00125D02*
X07277D01*
M02*