%FSTAX23Y23*%
%MOIN*%
%SFA1B1*%

%IPPOS*%
%ADD16C,0.059060*%
%ADD17R,0.059060X0.059060*%
%LNzx-joy-1*%
%LPD*%
G54D16*
X008Y0065D03*
Y0055D03*
X007Y0065D03*
Y0055D03*
X006Y0065D03*
Y0055D03*
X005Y0065D03*
Y0055D03*
X004Y0065D03*
Y0055D03*
X003Y0065D03*
Y0055D03*
X002Y0065D03*
Y0055D03*
X001Y0065D03*
X01D03*
X011Y0055D03*
Y0065D03*
X012Y0055D03*
Y0065D03*
X013Y0055D03*
Y0065D03*
X014Y0055D03*
Y0065D03*
X001Y0025D03*
X002Y0015D03*
Y0025D03*
X003Y0015D03*
Y0025D03*
X004Y0015D03*
Y0025D03*
X005Y0015D03*
Y0025D03*
X006Y0015D03*
Y0025D03*
X007Y0015D03*
Y0025D03*
X008Y0015D03*
Y0025D03*
X009Y0015D03*
Y0025D03*
X01Y0015D03*
Y0025D03*
X011Y0015D03*
Y0025D03*
X012Y0015D03*
Y0025D03*
X013Y0015D03*
Y0025D03*
X014Y0015D03*
Y0025D03*
X015Y0015D03*
Y0025D03*
X016Y0015D03*
Y0025D03*
X017Y0015D03*
Y0025D03*
X018Y0015D03*
Y0025D03*
X019Y0015D03*
Y0025D03*
X02Y0015D03*
Y0025D03*
X016Y0065D03*
X017Y0055D03*
Y0065D03*
X018Y0055D03*
Y0065D03*
X019Y0055D03*
Y0065D03*
X02Y0055D03*
Y0065D03*
G54D17*
X001Y0055D03*
X01D03*
X001Y0015D03*
X016Y0055D03*
M02*