%FSTAX23Y23*%
%MOIN*%
%SFA1B1*%

%IPPOS*%
%ADD10C,0.007870*%
%ADD11C,0.010000*%
%LNzx-joy-1*%
%LPD*%
G54D10*
X0005Y007D02*
X0085D01*
X0005Y005D02*
X0085D01*
X0005D02*
Y007D01*
X0085Y005D02*
Y007D01*
X0145Y005D02*
Y007D01*
X0095Y005D02*
Y007D01*
X0145*
X0095Y005D02*
X0145D01*
X0205Y001D02*
Y003D01*
X0005Y001D02*
Y003D01*
X0205*
X0005Y001D02*
X0205D01*
Y005D02*
Y007D01*
X0155Y005D02*
Y007D01*
X0205*
X0155Y005D02*
X0205D01*
G54D11*
X00062Y00466D02*
X00089D01*
Y0046*
X00062Y00434*
Y00427*
X00089*
X00102Y00466D02*
X00128Y00427D01*
Y00466D02*
X00102Y00427D01*
X00141Y00421D02*
X00167D01*
X0018Y00466D02*
Y00427D01*
Y0044*
X00207Y00466*
X00187Y00447*
X00207Y00427*
X00246Y00466D02*
X0022D01*
Y00427*
X00246*
X0022Y00447D02*
X00233D01*
X00259Y00466D02*
Y0046D01*
X00272Y00447*
X00285Y0046*
Y00466*
X00272Y00447D02*
Y00427D01*
X00298Y00466D02*
Y00427D01*
X00318*
X00325Y00434*
Y0044*
X00318Y00447*
X00298*
X00318*
X00325Y00453*
Y0046*
X00318Y00466*
X00298*
X0098Y00471D02*
X00967D01*
X00973*
Y00438*
X00967Y00432*
X0096*
X00953Y00438*
X01013Y00471D02*
X00999D01*
X00993Y00465*
Y00438*
X00999Y00432*
X01013*
X01019Y00438*
Y00465*
X01013Y00471*
X01032D02*
Y00465D01*
X01045Y00452*
X01058Y00465*
Y00471*
X01045Y00452D02*
Y00432D01*
X01098D02*
X01072D01*
X01098Y00458*
Y00465*
X01091Y00471*
X01078*
X01072Y00465*
X00089Y00365D02*
X00076D01*
X00083*
Y00332*
X00076Y00326*
X0007*
X00063Y00332*
X00102Y00326D02*
Y00365D01*
X00122*
X00129Y00359*
Y00346*
X00122Y00339*
X00102*
X00168Y00365D02*
X00142D01*
Y00346*
X00155Y00352*
X00161*
X00168Y00346*
Y00332*
X00161Y00326*
X00148*
X00142Y00332*
X01574Y00475D02*
X01561D01*
X01568*
Y00442*
X01561Y00436*
X01555*
X01548Y00442*
X01607Y00475D02*
X01594D01*
X01588Y00469*
Y00442*
X01594Y00436*
X01607*
X01614Y00442*
Y00469*
X01607Y00475*
X01627D02*
Y00469D01*
X0164Y00456*
X01653Y00469*
Y00475*
X0164Y00456D02*
Y00436D01*
X01666D02*
X01679D01*
X01673*
Y00475*
X01666Y00469*
X00058Y00046D02*
Y00071D01*
X00066Y00062*
X00074Y00071*
Y00046*
X00087D02*
X00095D01*
X00099Y0005*
Y00058*
X00095Y00062*
X00087*
X00082Y00058*
Y0005*
X00087Y00046*
X00124Y00071D02*
Y00046D01*
X00112*
X00107Y0005*
Y00058*
X00112Y00062*
X00124*
X00145Y00046D02*
X00137D01*
X00132Y0005*
Y00058*
X00137Y00062*
X00145*
X00149Y00058*
Y00054*
X00132*
X00157Y00062D02*
Y00046D01*
Y00054*
X00162Y00058*
X00166Y00062*
X0017*
X00182Y00046D02*
Y00062D01*
X00195*
X00199Y00058*
Y00046*
X00207D02*
X00216D01*
X00212*
Y00062*
X00207*
X00228D02*
X00245D01*
X00228Y00046*
X00245*
X00266D02*
X00257D01*
X00253Y0005*
Y00058*
X00257Y00062*
X00266*
X0027Y00058*
Y00054*
X00253*
X00295Y00071D02*
Y00046D01*
X00282*
X00278Y0005*
Y00058*
X00282Y00062*
X00295*
X00328Y00071D02*
X00345D01*
Y00067*
X00328Y0005*
Y00046*
X00345*
X00353Y00071D02*
X0037Y00046D01*
Y00071D02*
X00353Y00046D01*
X0042Y00067D02*
X00416Y00071D01*
X00407*
X00403Y00067*
Y00062*
X00407Y00058*
X00416*
X0042Y00054*
Y0005*
X00416Y00046*
X00407*
X00403Y0005*
X00428Y00038D02*
Y00062D01*
X00441*
X00445Y00058*
Y0005*
X00441Y00046*
X00428*
X00466D02*
X00457D01*
X00453Y0005*
Y00058*
X00457Y00062*
X00466*
X0047Y00058*
Y00054*
X00453*
X00495Y00062D02*
X00482D01*
X00478Y00058*
Y0005*
X00482Y00046*
X00495*
X00507Y00067D02*
Y00062D01*
X00503*
X00512*
X00507*
Y0005*
X00512Y00046*
X00524Y00062D02*
Y00046D01*
Y00054*
X00528Y00058*
X00532Y00062*
X00537*
X00549D02*
Y0005D01*
X00553Y00046*
X00566*
Y00062*
X00574Y00046D02*
Y00062D01*
X00578*
X00582Y00058*
Y00046*
Y00058*
X00587Y00062*
X00591Y00058*
Y00046*
X00603Y00042D02*
X00607Y00046D01*
Y0005*
X00603*
Y00046*
X00607*
X00603Y00042*
X00599Y00038*
X00649Y00046D02*
Y00071D01*
X00657Y00062*
X00666Y00071*
Y00046*
X00691Y00067D02*
X00686Y00071D01*
X00678*
X00674Y00067*
Y00062*
X00678Y00058*
X00686*
X00691Y00054*
Y0005*
X00686Y00046*
X00678*
X00674Y0005*
X00716Y00062D02*
X00703D01*
X00699Y00058*
Y0005*
X00703Y00046*
X00716*
X00728Y00042D02*
X00732Y00046D01*
Y0005*
X00728*
Y00046*
X00732*
X00728Y00042*
X00724Y00038*
X00774Y00071D02*
Y00046D01*
X00791*
X00816Y00071D02*
X00799D01*
Y00046*
X00816*
X00799Y00058D02*
X00807D01*
X00824Y00071D02*
X00832D01*
X00828*
Y00046*
X00824*
X00832*
X00861Y00067D02*
X00857Y00071D01*
X00849*
X00845Y00067*
Y0005*
X00849Y00046*
X00857*
X00861Y0005*
X00874Y00042D02*
X00878Y00046D01*
Y0005*
X00874*
Y00046*
X00878*
X00874Y00042*
X0087Y00038*
X0092Y00071D02*
X00928D01*
X00924*
Y00046*
X0092*
X00928*
X00957Y00067D02*
X00953Y00071D01*
X00945*
X00941Y00067*
Y00062*
X00945Y00058*
X00953*
X00957Y00054*
Y0005*
X00953Y00046*
X00945*
X00941Y0005*
X00982Y00071D02*
X00966D01*
Y00046*
X00982*
X00966Y00058D02*
X00974D01*
X00991Y00071D02*
Y00046D01*
X01007*
X0102Y00042D02*
X01024Y00046D01*
Y0005*
X0102*
Y00046*
X01024*
X0102Y00042*
X01016Y00038*
X01082Y00046D02*
X01066D01*
X01082Y00062*
Y00067*
X01078Y00071*
X0107*
X01066Y00067*
X01091D02*
X01095Y00071D01*
X01103*
X01107Y00067*
Y0005*
X01103Y00046*
X01095*
X01091Y0005*
Y00067*
X01132Y00046D02*
X01115D01*
X01132Y00062*
Y00067*
X01128Y00071*
X0112*
X01115Y00067*
X0114D02*
X01145Y00071D01*
X01153*
X01157Y00067*
Y00062*
X01153Y00058*
X01149*
X01153*
X01157Y00054*
Y0005*
X01153Y00046*
X01145*
X0114Y0005*
X0193Y00073D02*
Y00048D01*
X01942*
X01946Y00052*
Y00056*
Y0006*
X01942Y00064*
X0193*
X01954D02*
Y00052D01*
X01959Y00048*
X01971*
Y00044*
X01967Y0004*
X01963*
X01971Y00048D02*
Y00064D01*
X02004Y00048D02*
Y00073D01*
X02017*
X02021Y00069*
Y0006*
X02017Y00056*
X02004*
X02013D02*
X02021Y00048D01*
X02029D02*
Y00073D01*
X02042*
X02046Y00069*
Y0006*
X02042Y00056*
X02029*
X02054Y00073D02*
Y00048D01*
X02067*
X02071Y00052*
Y00069*
X02067Y00073*
X02054*
M02*