<svg version="1.1" viewBox="0.0 0.0 588.4278215223097 390.4278215223097" fill="none" stroke="none" stroke-linecap="square" stroke-miterlimit="10" xmlns:xlink="http://www.w3.org/1999/xlink" xmlns="http://www.w3.org/2000/svg"><clipPath id="p.0"><path d="m0 0l588.4278 0l0 390.42783l-588.4278 0l0 -390.42783z" clip-rule="nonzero"/></clipPath><g clip-path="url(#p.0)"><path fill="#000000" fill-opacity="0.0" d="m0 0l588.4278 0l0 390.42783l-588.4278 0z" fill-rule="evenodd"/><path fill="#ffffff" d="m-0.78215224 -1.1732284l593.92126 0l0 394.80313l-593.92126 0z" fill-rule="evenodd"/><path stroke="#000000" stroke-width="1.0" stroke-linejoin="round" stroke-linecap="butt" d="m-0.78215224 -1.1732284l593.92126 0l0 394.80313l-593.92126 0z" fill-rule="evenodd"/><path fill="#fce5cd" d="m5.5826774 58.14698l435.59055 0l0 286.96063l-435.59055 0z" fill-rule="evenodd"/><path stroke="#000000" stroke-width="1.0" stroke-linejoin="round" stroke-linecap="butt" d="m5.5826774 58.14698l435.59055 0l0 286.96063l-435.59055 0z" fill-rule="evenodd"/><path fill="#000000" d="m19.348303 85.06698l-4.781251 -13.359375l2.937501 0l3.375 9.890625l3.265625 -9.890625l2.859375 0l-4.78125 13.359375l-2.875 0zm8.6844635 -10.984375l0 -2.375l2.5625 0l0 2.375l-2.5625 0zm0 10.984375l0 -9.671875l2.5625 0l0 9.671875l-2.5625 0zm14.058302 0l-2.390625 0l0 -1.421875q-0.59375 0.828125 -1.40625 1.234375q-0.796875 0.40625 -1.609375 0.40625q-1.671875 0 -2.859375 -1.34375q-1.1875 -1.34375 -1.1875 -3.75q0 -2.453125 1.15625 -3.734375q1.15625 -1.28125 2.921875 -1.28125q1.625 0 2.8125 1.34375l0 -4.8125l2.5625 0l0 13.359375zm-6.84375 -5.046875q0 1.546875 0.4375 2.234375q0.609375 1.015625 1.71875 1.015625q0.890625 0 1.5 -0.75q0.625 -0.765625 0.625 -2.25q0 -1.671875 -0.609375 -2.40625q-0.59375 -0.734375 -1.53125 -0.734375q-0.90625 0 -1.53125 0.734375q-0.609375 0.71875 -0.609375 2.15625zm14.958481 1.96875l2.546875 0.421875q-0.484375 1.40625 -1.546875 2.140625q-1.0625 0.734375 -2.65625 0.734375q-2.515625 0 -3.734375 -1.65625q-0.953125 -1.3125 -0.953125 -3.328125q0 -2.40625 1.25 -3.765625q1.265625 -1.359375 3.1875 -1.359375q2.15625 0 3.40625 1.421875q1.25 1.421875 1.1875 4.375l-6.40625 0q0.03125 1.140625 0.609375 1.78125q0.59375 0.625 1.484375 0.625q0.59375 0 1.0 -0.328125q0.421875 -0.328125 0.625 -1.0625zm0.15625 -2.59375q-0.03125 -1.109375 -0.578125 -1.6875q-0.546875 -0.578125 -1.328125 -0.578125q-0.84375 0 -1.390625 0.609375q-0.546875 0.609375 -0.53125 1.65625l3.828125 0zm4.031967 0.703125q0 -1.28125 0.625 -2.46875q0.625 -1.203125 1.78125 -1.828125q1.15625 -0.625 2.578125 -0.625q2.1875 0 3.59375 1.421875q1.4062538 1.421875 1.4062538 3.609375q0 2.1875 -1.4218788 3.640625q-1.421875 1.4375 -3.5625 1.4375q-1.328125 0 -2.546875 -0.59375q-1.203125 -0.609375 -1.828125 -1.765625q-0.625 -1.171875 -0.625 -2.828125zm2.625 0.125q0 1.453125 0.671875 2.21875q0.6875 0.75 1.6875 0.75q1.0 0 1.671875 -0.75q0.6875 -0.765625 0.6875 -2.234375q0 -1.421875 -0.6875 -2.1875q-0.671875 -0.765625 -1.671875 -0.765625q-1.0 0 -1.6875 0.765625q-0.671875 0.765625 -0.671875 2.203125z" fill-rule="nonzero"/><path fill="#cfe2f3" d="m29.251968 9.04462l343.9685 0l0 33.10236l-343.9685 0z" fill-rule="evenodd"/><path stroke="#000000" stroke-width="1.0" stroke-linejoin="round" stroke-linecap="butt" d="m29.251968 9.04462l343.9685 0l0 33.10236l-343.9685 0z" fill-rule="evenodd"/><path fill="#000000" d="m185.78787 32.5158l-4.78125 -13.359377l2.9375 0l3.375 9.890625l3.265625 -9.890625l2.859375 0l-4.78125 13.359377l-2.875 0zm15.240448 -4.906252l0 -2.25l5.8125 0l0 5.3125q-0.84375 0.828125 -2.453125 1.4531269q-1.609375 0.625 -3.25 0.625q-2.09375 0 -3.65625 -0.8750019q-1.5625 -0.890625 -2.34375 -2.515625q-0.78125 -1.640625 -0.78125 -3.5625q0 -2.09375 0.875 -3.703125q0.875 -1.625 2.5625 -2.5q1.28125 -0.65625 3.203125 -0.65625q2.484375 0 3.875 1.046875q1.40625 1.03125 1.796875 2.875l-2.671875 0.5q-0.28125 -0.984375 -1.0625 -1.546875q-0.78125 -0.578125 -1.9375 -0.578125q-1.78125 0 -2.828125 1.125q-1.03125 1.125 -1.03125 3.328125q0 2.375 1.046875 3.5625q1.0625 1.1875 2.78125 1.1875q0.84375 0 1.6875 -0.328125q0.859375 -0.328125 1.46875 -0.8125l0 -1.6875l-3.09375 0zm20.355179 4.906252l-2.9375 0l-1.171875 -3.031252l-5.328125 0l-1.109375 3.031252l-2.859375 0l5.203125 -13.359377l2.84375 0l5.359375 13.359377zm-4.96875 -5.281252l-1.84375 -4.953125l-1.796875 4.953125l3.640625 0z" fill-rule="nonzero"/><path fill="#b6d7a8" d="m106.419945 190.33333l123.338585 0l0 119.18111l-123.338585 0z" fill-rule="evenodd"/><path stroke="#000000" stroke-width="1.0" stroke-linejoin="round" stroke-linecap="butt" d="m106.419945 190.33333l123.338585 0l0 119.18111l-123.338585 0z" fill-rule="evenodd"/><path fill="#000000" d="m154.84705 246.28389l-4.109375 -11.453125l2.515625 0l2.90625 8.46875l2.796875 -8.46875l2.453125 0l-4.09375 11.453125l-2.46875 0zm13.078125 -4.21875l0 -1.921875l4.9843903 0l0 4.5625q-0.734375 0.703125 -2.109375 1.25q-1.3750153 0.53125 -2.7968903 0.53125q-1.796875 0 -3.140625 -0.75q-1.328125 -0.765625 -2.0 -2.171875q-0.671875 -1.40625 -0.671875 -3.046875q0 -1.796875 0.75 -3.1875q0.75 -1.390625 2.203125 -2.125q1.09375 -0.578125 2.734375 -0.578125q2.140625 0 3.3281403 0.90625q1.203125 0.890625 1.546875 2.46875l-2.296875 0.421875q-0.23439026 -0.84375 -0.90626526 -1.328125q-0.671875 -0.484375 -1.671875 -0.484375q-1.515625 0 -2.40625 0.96875q-0.890625 0.953125 -0.890625 2.84375q0 2.03125 0.90625 3.0625q0.90625 1.015625 2.375 1.015625q0.71875 0 1.453125 -0.28125q0.734375 -0.296875 1.2500153 -0.703125l0 -1.453125l-2.6406403 0zm17.445328 4.21875l-2.515625 0l-1.0 -2.609375l-4.578125 0l-0.953125 2.609375l-2.453125 0l4.46875 -11.453125l2.4375 0l4.59375 11.453125zm-4.265625 -4.53125l-1.578125 -4.25l-1.546875 4.25l3.125 0z" fill-rule="nonzero"/><path fill="#000000" d="m138.36658 261.06512l2.234375 0.71875q-0.515625 1.875 -1.71875 2.796875q-1.1875 0.90625 -3.03125 0.90625q-2.28125 0 -3.75 -1.5625q-1.46875 -1.5625 -1.46875 -4.265625q0 -2.859375 1.46875 -4.4375q1.484375 -1.59375 3.890625 -1.59375q2.09375 0 3.40625 1.25q0.78125 0.734375 1.171875 2.109375l-2.28125 0.546875q-0.203125 -0.890625 -0.859375 -1.40625q-0.640625 -0.515625 -1.5625 -0.515625q-1.265625 0 -2.0625 0.921875q-0.796875 0.90625 -0.796875 2.953125q0 2.171875 0.78125 3.09375q0.78125 0.921875 2.03125 0.921875q0.921875 0 1.578125 -0.578125q0.671875 -0.59375 0.96875 -1.859375zm3.6953125 -0.046875q0 -1.09375 0.53125 -2.109375q0.546875 -1.03125 1.53125 -1.5625q1.0 -0.546875 2.21875 -0.546875q1.875 0 3.078125 1.21875q1.203125 1.21875 1.203125 3.09375q0 1.875 -1.21875 3.125q-1.203125 1.234375 -3.046875 1.234375q-1.140625 0 -2.1875 -0.515625q-1.03125 -0.515625 -1.578125 -1.515625q-0.53125 -1.0 -0.53125 -2.421875zm2.25 0.109375q0 1.234375 0.578125 1.890625q0.59375 0.65625 1.453125 0.65625q0.859375 0 1.4375 -0.65625q0.59375 -0.65625 0.59375 -1.90625q0 -1.21875 -0.59375 -1.875q-0.578125 -0.65625 -1.4375 -0.65625q-0.859375 0 -1.453125 0.65625q-0.578125 0.65625 -0.578125 1.890625zm15.5859375 4.15625l-2.203125 0l0 -4.234375q0 -1.34375 -0.140625 -1.734375q-0.140625 -0.40625 -0.453125 -0.625q-0.3125 -0.21875 -0.765625 -0.21875q-0.5625 0 -1.015625 0.3125q-0.453125 0.3125 -0.625 0.828125q-0.171875 0.515625 -0.171875 1.90625l0 3.765625l-2.1875 0l0 -8.296875l2.03125 0l0 1.21875q1.09375 -1.40625 2.734375 -1.40625q0.734375 0 1.328125 0.265625q0.609375 0.25 0.90625 0.65625q0.3125 0.40625 0.4375 0.921875q0.125 0.515625 0.125 1.484375l0 5.15625zm6.0234375 -8.296875l0 1.75l-1.5 0l0 3.34375q0 1.015625 0.046875 1.1875q0.046875 0.15625 0.1875 0.265625q0.15625 0.109375 0.375 0.109375q0.3125 0 0.890625 -0.203125l0.1875 1.703125q-0.765625 0.328125 -1.734375 0.328125q-0.59375 0 -1.078125 -0.203125q-0.46875 -0.203125 -0.703125 -0.515625q-0.21875 -0.3125 -0.296875 -0.859375q-0.078125 -0.375 -0.078125 -1.546875l0 -3.609375l-1.0 0l0 -1.75l1.0 0l0 -1.65625l2.203125 -1.28125l0 2.9375l1.5 0zm3.625 8.296875l-2.1875 0l0 -8.296875l2.03125 0l0 1.171875q0.53125 -0.828125 0.9375 -1.09375q0.42189026 -0.265625 0.95314026 -0.265625q0.75 0 1.453125 0.40625l-0.6875 1.921875q-0.546875 -0.359375 -1.03125 -0.359375q-0.453125 0 -0.78126526 0.25q-0.3125 0.25 -0.5 0.921875q-0.1875 0.65625 -0.1875 2.78125l0 2.5625zm3.6172028 -4.265625q0 -1.09375 0.53125 -2.109375q0.546875 -1.03125 1.53125 -1.5625q1.0 -0.546875 2.21875 -0.546875q1.875 0 3.078125 1.21875q1.203125 1.21875 1.203125 3.09375q0 1.875 -1.21875 3.125q-1.203125 1.234375 -3.046875 1.234375q-1.140625 0 -2.1875 -0.515625q-1.03125 -0.515625 -1.578125 -1.515625q-0.53125 -1.0 -0.53125 -2.421875zm2.25 0.109375q0 1.234375 0.578125 1.890625q0.59375 0.65625 1.453125 0.65625q0.859375 0 1.4375 -0.65625q0.59375 -0.65625 0.59375 -1.90625q0 -1.21875 -0.59375 -1.875q-0.578125 -0.65625 -1.4375 -0.65625q-0.859375 0 -1.453125 0.65625q-0.578125 0.65625 -0.578125 1.890625zm8.0390625 4.15625l0 -11.453125l2.1875 0l0 11.453125l-2.1875 0zm4.4453125 0l0 -11.453125l2.1875 0l0 11.453125l-2.1875 0zm9.2421875 -2.640625l2.1875 0.359375q-0.421875 1.203125 -1.328125 1.84375q-0.90625 0.625 -2.28125 0.625q-2.15625 0 -3.203125 -1.421875q-0.8125 -1.125 -0.8125 -2.859375q0 -2.0625 1.078125 -3.21875q1.078125 -1.171875 2.71875 -1.171875q1.859375 0 2.921875 1.21875q1.078125 1.21875 1.03125 3.75l-5.5 0q0.015625 0.96875 0.515625 1.515625q0.515625 0.546875 1.28125 0.546875q0.515625 0 0.859375 -0.28125q0.359375 -0.28125 0.53125 -0.90625zm0.125 -2.21875q-0.015625 -0.953125 -0.484375 -1.453125q-0.46875 -0.5 -1.140625 -0.5q-0.71875 0 -1.1875 0.53125q-0.46875 0.515625 -0.46875 1.421875l3.28125 0zm6.0703125 4.859375l-2.1875 0l0 -8.296875l2.03125 0l0 1.171875q0.53125 -0.828125 0.9375 -1.09375q0.421875 -0.265625 0.953125 -0.265625q0.75 0 1.453125 0.40625l-0.6875 1.921875q-0.546875 -0.359375 -1.03125 -0.359375q-0.453125 0 -0.78125 0.25q-0.3125 0.25 -0.5 0.921875q-0.1875 0.65625 -0.1875 2.78125l0 2.5625z" fill-rule="nonzero"/><path fill="#000000" fill-opacity="0.0" d="m81.23622 390.09973l0 -347.43307" fill-rule="evenodd"/><path stroke="#000000" stroke-width="1.0" stroke-linejoin="round" stroke-linecap="butt" d="m81.23622 390.09973l0 -344.00598" fill-rule="evenodd"/><path fill="#000000" stroke="#000000" stroke-width="1.0" stroke-linecap="butt" d="m81.23622 46.093754l1.1245804 1.1245842l-1.1245804 -3.0897675l-1.124588 3.0897675z" fill-rule="evenodd"/><path fill="#000000" d="m78.00758 249.9233l0 0c0 -1.782959 1.4453812 -3.2283478 3.2283478 -3.2283478l0 0c0.8562088 0 1.6773529 0.34013367 2.2827835 0.9455719c0.60543823 0.605423 0.94556427 1.4265747 0.94556427 2.2827759l0 0c0 1.7829742 -1.4453812 3.2283478 -3.2283478 3.2283478l0 0c-1.7829666 0 -3.2283478 -1.4453735 -3.2283478 -3.2283478z" fill-rule="evenodd"/><path stroke="#000000" stroke-width="1.0" stroke-linejoin="round" stroke-linecap="butt" d="m78.00758 249.9233l0 0c0 -1.782959 1.4453812 -3.2283478 3.2283478 -3.2283478l0 0c0.8562088 0 1.6773529 0.34013367 2.2827835 0.9455719c0.60543823 0.605423 0.94556427 1.4265747 0.94556427 2.2827759l0 0c0 1.7829742 -1.4453812 3.2283478 -3.2283478 3.2283478l0 0c-1.7829666 0 -3.2283478 -1.4453735 -3.2283478 -3.2283478z" fill-rule="evenodd"/><path fill="#000000" fill-opacity="0.0" d="m84.46428 249.9233l21.952751 0" fill-rule="evenodd"/><path stroke="#000000" stroke-width="1.0" stroke-linejoin="round" stroke-linecap="butt" d="m84.46428 249.9233l18.525673 0" fill-rule="evenodd"/><path fill="#000000" stroke="#000000" stroke-width="1.0" stroke-linecap="butt" d="m102.98995 249.9233l-1.124588 1.1245728l3.0897675 -1.1245728l-3.0897675 -1.124588z" fill-rule="evenodd"/><path fill="#000000" fill-opacity="0.0" d="m50.220474 325.12335l0 -281.88977l38.771652 0l0 281.88977z" fill-rule="evenodd"/><path fill="#000000" d="m74.580475 235.11206l-11.453125 0l0 -4.328125q0 -1.140625 0.109375 -1.734375q0.140625 -0.84375 0.53125 -1.40625q0.390625 -0.578125 1.109375 -0.921875q0.703125 -0.359375 1.5625 -0.359375q1.453125 0 2.46875 0.9375q1.015625 0.921875 1.015625 3.359375l0 2.9375l4.65625 0l0 1.515625zm-6.015625 -1.515625l0 -2.96875q0 -1.46875 -0.546875 -2.078125q-0.546875 -0.625 -1.53125 -0.625q-0.71875 0 -1.234375 0.375q-0.515625 0.359375 -0.671875 0.953125q-0.109375 0.375 -0.109375 1.40625l0 2.9375l4.09375 0zm6.015625 -9.421875l-11.453125 0l0 -1.515625l11.453125 0l0 1.515625zm0 -3.0234375l-5.96875 -4.421875l-5.484375 3.90625l0 -1.8125l2.9375 -2.078125q0.90625 -0.640625 1.40625 -0.921875q-0.625 -0.375 -1.3125 -0.90625l-3.03125 -2.296875l0 -1.65625l5.390625 4.03125l6.0625 -4.34375l0 1.875l-4.09375 2.890625q-0.34375 0.234375 -0.765625 0.5q0.625 0.375 0.859375 0.546875l4.0 2.875l0 1.8125zm0 -11.859375l-11.453125 0l0 -8.28125l1.34375 0l0 6.765625l3.515625 0l0 -6.34375l1.34375 0l0 6.34375l3.890625 0l0 -7.03125l1.359375 0l0 8.546875zm0 -10.578125l-11.453125 0l0 -1.515625l10.09375 0l0 -5.640625l1.359375 0l0 7.15625zm-4.015625 -20.984375l0.375 -1.515625q1.875 0.46875 2.859375 1.71875q0.984375 1.234375 0.984375 3.015625q0 1.859375 -0.75 3.015625q-0.765625 1.15625 -2.1875 1.765625q-1.4375 0.609375 -3.078125 0.609375q-1.796875 0 -3.125 -0.6875q-1.328125 -0.6875 -2.015625 -1.9375q-0.703125 -1.265625 -0.703125 -2.78125q0 -1.71875 0.875 -2.890625q0.875 -1.171875 2.46875 -1.640625l0.34375 1.5q-1.25 0.390625 -1.8125 1.15625q-0.578125 0.75 -0.578125 1.90625q0 1.3125 0.640625 2.203125q0.625 0.890625 1.703125 1.25q1.0625 0.359375 2.1875 0.359375q1.46875 0 2.5625 -0.421875q1.078125 -0.4375 1.625 -1.328125q0.53125 -0.90625 0.53125 -1.953125q0 -1.265625 -0.734375 -2.140625q-0.734375 -0.890625 -2.171875 -1.203125zm4.015625 -3.3203125l-11.453125 0l0 -1.515625l10.09375 0l0 -5.640625l1.359375 0l0 7.15625zm-5.578125 -8.5078125q-2.859375 0 -4.46875 -1.53125q-1.609375 -1.53125 -1.609375 -3.953125q0 -1.578125 0.765625 -2.84375q0.75 -1.28125 2.109375 -1.953125q1.34375 -0.671875 3.0625 -0.671875q1.75 0 3.125 0.703125q1.375 0.703125 2.09375 2.0q0.703125 1.28125 0.703125 2.78125q0 1.609375 -0.78125 2.890625q-0.796875 1.265625 -2.140625 1.921875q-1.359375 0.65625 -2.859375 0.65625zm0.015625 -1.5625q2.078125 0 3.265625 -1.109375q1.1875 -1.109375 1.1875 -2.796875q0 -1.703125 -1.203125 -2.8125q-1.203125 -1.109375 -3.40625 -1.109375q-1.40625 0 -2.4375 0.484375q-1.046875 0.46875 -1.625 1.375q-0.578125 0.90625 -0.578125 2.046875q0 1.609375 1.109375 2.765625q1.109375 1.15625 3.6875 1.15625zm1.546875 -19.507812l0.375 -1.515625q1.875 0.46875 2.859375 1.71875q0.984375 1.234375 0.984375 3.015625q0 1.859375 -0.75 3.015625q-0.765625 1.15625 -2.1875 1.765625q-1.4375 0.609375 -3.078125 0.609375q-1.796875 0 -3.125 -0.6875q-1.328125 -0.6875 -2.015625 -1.9375q-0.703125 -1.265625 -0.703125 -2.78125q0 -1.71875 0.875 -2.890625q0.875 -1.171875 2.46875 -1.640625l0.34375 1.5q-1.25 0.390625 -1.8125 1.15625q-0.578125 0.75 -0.578125 1.90625q0 1.3125 0.640625 2.203125q0.625 0.890625 1.703125 1.25q1.0625 0.359375 2.1875 0.359375q1.46875 0 2.5625 -0.421875q1.078125 -0.4375 1.625 -1.328125q0.53125 -0.90625 0.53125 -1.953125q0 -1.265625 -0.734375 -2.140625q-0.734375 -0.890625 -2.171875 -1.203125zm4.015625 -3.3203125l-11.453125 0l0 -1.515625l5.671875 0l-5.671875 -5.6875l0 -2.0625l4.640625 4.8125l6.8125 -5.015625l0 2.0l-5.796875 4.078125l1.828125 1.875l3.96875 0l0 1.515625z" fill-rule="nonzero"/><path fill="#b6d7a8" d="m280.82153 105.7979l123.33856 0l0 116.53543l-123.33856 0z" fill-rule="evenodd"/><path stroke="#000000" stroke-width="1.0" stroke-linejoin="round" stroke-linecap="butt" d="m280.82153 105.7979l123.33856 0l0 116.53543l-123.33856 0z" fill-rule="evenodd"/><path fill="#000000" d="m326.30722 148.97249l4.234375 0q1.421875 0 2.171875 0.21875q1.015625 0.296875 1.734375 1.0625q0.71875 0.75 1.09375 1.84375q0.375 1.09375 0.375 2.703125q0 1.421875 -0.359375 2.4375q-0.421875 1.25 -1.21875 2.03125q-0.609375 0.578125 -1.625 0.90625q-0.765625 0.25 -2.046875 0.25l-4.359375 0l0 -11.453125zm2.3125 1.9375l0 7.578125l1.734375 0q0.96875 0 1.390625 -0.109375q0.5625 -0.140625 0.9375 -0.46875q0.375 -0.34375 0.609375 -1.109375q0.234375 -0.765625 0.234375 -2.09375q0 -1.328125 -0.234375 -2.03125q-0.234375 -0.71875 -0.65625 -1.109375q-0.421875 -0.40625 -1.078125 -0.546875q-0.484375 -0.109375 -1.890625 -0.109375l-1.046875 0zm10.8828125 3.75l-2.0 -0.359375q0.34375 -1.203125 1.15625 -1.78125q0.828125 -0.578125 2.4375 -0.578125q1.46875 0 2.1875 0.34375q0.71875 0.34375 1.015625 0.890625q0.296875 0.53125 0.296875 1.953125l-0.03125 2.5625q0 1.09375 0.109375 1.625q0.109375 0.515625 0.390625 1.109375l-2.171875 0q-0.078125 -0.21875 -0.203125 -0.65625q-0.0625 -0.1875 -0.078125 -0.25q-0.5625 0.546875 -1.203125 0.828125q-0.640625 0.265625 -1.375 0.265625q-1.28125 0 -2.015625 -0.6875q-0.734375 -0.703125 -0.734375 -1.765625q0 -0.703125 0.328125 -1.25q0.34375 -0.5625 0.9375 -0.84375q0.609375 -0.296875 1.75 -0.515625q1.546875 -0.296875 2.140625 -0.546875l0 -0.21875q0 -0.625 -0.3125 -0.890625q-0.3125 -0.28125 -1.1875 -0.28125q-0.578125 0 -0.90625 0.234375q-0.328125 0.234375 -0.53125 0.8125zm2.9375 1.78125q-0.421875 0.140625 -1.34375 0.34375q-0.90625 0.1875 -1.1875 0.375q-0.4375 0.296875 -0.4375 0.765625q0 0.46875 0.34375 0.8125q0.34375 0.328125 0.875 0.328125q0.59375 0 1.140625 -0.390625q0.390625 -0.296875 0.515625 -0.734375q0.09375 -0.28125 0.09375 -1.0625l0 -0.4375zm8.1171875 -4.3125l0 1.75l-1.5 0l0 3.34375q0 1.015625 0.046875 1.1875q0.046875 0.15625 0.1875 0.265625q0.15625 0.109375 0.375 0.109375q0.3125 0 0.890625 -0.203125l0.1875 1.703125q-0.765625 0.328125 -1.734375 0.328125q-0.59375 0 -1.078125 -0.203125q-0.46875 -0.203125 -0.703125 -0.515625q-0.21875 -0.3125 -0.296875 -0.859375q-0.078125 -0.375 -0.078125 -1.546875l0 -3.609375l-1.0 0l0 -1.75l1.0 0l0 -1.65625l2.203125 -1.28125l0 2.9375l1.5 0zm3.171875 2.53125l-2.0 -0.359375q0.34375 -1.203125 1.15625 -1.78125q0.828125 -0.578125 2.4375 -0.578125q1.46875 0 2.1875 0.34375q0.71875 0.34375 1.015625 0.890625q0.296875 0.53125 0.296875 1.953125l-0.03125 2.5625q0 1.09375 0.109375 1.625q0.109375 0.515625 0.390625 1.109375l-2.171875 0q-0.078125 -0.21875 -0.203125 -0.65625q-0.0625 -0.1875 -0.078125 -0.25q-0.5625 0.546875 -1.203125 0.828125q-0.640625 0.265625 -1.375 0.265625q-1.28125 0 -2.015625 -0.6875q-0.734375 -0.703125 -0.734375 -1.765625q0 -0.703125 0.328125 -1.25q0.34375 -0.5625 0.9375 -0.84375q0.609375 -0.296875 1.75 -0.515625q1.546875 -0.296875 2.140625 -0.546875l0 -0.21875q0 -0.625 -0.3125 -0.890625q-0.3125 -0.28125 -1.1875 -0.28125q-0.578125 0 -0.90625 0.234375q-0.328125 0.234375 -0.53125 0.8125zm2.9375 1.78125q-0.421875 0.140625 -1.34375 0.34375q-0.90625 0.1875 -1.1875 0.375q-0.4375 0.296875 -0.4375 0.765625q0 0.46875 0.34375 0.8125q0.34375 0.328125 0.875 0.328125q0.59375 0 1.140625 -0.390625q0.390625 -0.296875 0.515625 -0.734375q0.09375 -0.28125 0.09375 -1.0625l0 -0.4375z" fill-rule="nonzero"/><path fill="#000000" d="m303.57285 179.42561l0 -11.453125l2.3125 0l0 11.453125l-2.3125 0zm12.0546875 0l-2.203125 0l0 -4.234375q0 -1.34375 -0.140625 -1.734375q-0.140625 -0.40625 -0.453125 -0.625q-0.3125 -0.21875 -0.765625 -0.21875q-0.5625 0 -1.015625 0.3125q-0.453125 0.3125 -0.625 0.828125q-0.171875 0.515625 -0.171875 1.90625l0 3.765625l-2.1875 0l0 -8.296875l2.03125 0l0 1.21875q1.09375 -1.40625 2.734375 -1.40625q0.734375 0 1.328125 0.265625q0.609375 0.25 0.90625 0.65625q0.3125 0.40625 0.4375 0.921875q0.125 0.515625 0.125 1.484375l0 5.15625zm6.0234375 -8.296875l0 1.75l-1.5 0l0 3.34375q0 1.015625 0.046875 1.1875q0.046875 0.15625 0.1875 0.265625q0.15625 0.109375 0.375 0.109375q0.3125 0 0.890625 -0.203125l0.1875 1.703125q-0.765625 0.328125 -1.734375 0.328125q-0.59375 0 -1.078125 -0.203125q-0.46875 -0.203125 -0.703125 -0.515625q-0.21875 -0.3125 -0.296875 -0.859375q-0.078125 -0.375 -0.078125 -1.546875l0 -3.609375l-1.0 0l0 -1.75l1.0 0l0 -1.65625l2.203125 -1.28125l0 2.9375l1.5 0zm6.328125 5.65625l2.1875 0.359375q-0.421875 1.203125 -1.328125 1.84375q-0.90625 0.625 -2.28125 0.625q-2.15625 0 -3.203125 -1.421875q-0.8125 -1.125 -0.8125 -2.859375q0 -2.0625 1.078125 -3.21875q1.078125 -1.171875 2.71875 -1.171875q1.859375 0 2.921875 1.21875q1.078125 1.21875 1.03125 3.75l-5.5 0q0.015625 0.96875 0.515625 1.515625q0.515625 0.546875 1.28125 0.546875q0.515625 0 0.859375 -0.28125q0.359375 -0.28125 0.53125 -0.90625zm0.125 -2.21875q-0.015625 -0.953125 -0.484375 -1.453125q-0.46875 -0.5 -1.140625 -0.5q-0.71875 0 -1.1875 0.53125q-0.46875 0.515625 -0.46875 1.421875l3.28125 0zm6.0703125 4.859375l-2.1875 0l0 -8.296875l2.03125 0l0 1.171875q0.53125 -0.828125 0.9375 -1.09375q0.421875 -0.265625 0.953125 -0.265625q0.75 0 1.453125 0.40625l-0.6875 1.921875q-0.546875 -0.359375 -1.03125 -0.359375q-0.453125 0 -0.78125 0.25q-0.3125 0.25 -0.5 0.921875q-0.1875 0.65625 -0.1875 2.78125l0 2.5625zm4.0703125 -8.296875l2.046875 0l0 1.21875q0.390625 -0.625 1.0625 -1.015625q0.6875 -0.390625 1.515625 -0.390625q1.453125 0 2.453125 1.140625q1.015625 1.125 1.015625 3.140625q0 2.078125 -1.015625 3.234375q-1.015625 1.15625 -2.46875 1.15625q-0.6875 0 -1.25 -0.265625q-0.546875 -0.28125 -1.171875 -0.953125l0 4.1875l-2.1875 0l0 -11.453125zm2.171875 4.0q0 1.40625 0.546875 2.078125q0.5625 0.65625 1.359375 0.65625q0.765625 0 1.265625 -0.609375q0.515625 -0.609375 0.515625 -2.015625q0 -1.296875 -0.53125 -1.921875q-0.515625 -0.640625 -1.296875 -0.640625q-0.796875 0 -1.328125 0.625q-0.53125 0.609375 -0.53125 1.828125zm9.7578125 4.296875l-2.1875 0l0 -8.296875l2.03125 0l0 1.171875q0.53125 -0.828125 0.9375 -1.09375q0.421875 -0.265625 0.953125 -0.265625q0.75 0 1.453125 0.40625l-0.6875 1.921875q-0.546875 -0.359375 -1.03125 -0.359375q-0.453125 0 -0.78125 0.25q-0.3125 0.25 -0.5 0.921875q-0.1875 0.65625 -0.1875 2.78125l0 2.5625zm8.9296875 -2.640625l2.1875 0.359375q-0.421875 1.203125 -1.328125 1.84375q-0.90625 0.625 -2.28125 0.625q-2.15625 0 -3.203125 -1.421875q-0.8125 -1.125 -0.8125 -2.859375q0 -2.0625 1.078125 -3.21875q1.078125 -1.171875 2.71875 -1.171875q1.859375 0 2.921875 1.21875q1.078125 1.21875 1.03125 3.75l-5.5 0q0.015625 0.96875 0.515625 1.515625q0.515625 0.546875 1.28125 0.546875q0.515625 0 0.859375 -0.28125q0.359375 -0.28125 0.53125 -0.90625zm0.125 -2.21875q-0.015625 -0.953125 -0.484375 -1.453125q-0.46875 -0.5 -1.140625 -0.5q-0.71875 0 -1.1875 0.53125q-0.46875 0.515625 -0.46875 1.421875l3.28125 0zm7.7734375 -3.4375l0 1.75l-1.5 0l0 3.34375q0 1.015625 0.046875 1.1875q0.046875 0.15625 0.1875 0.265625q0.15625 0.109375 0.375 0.109375q0.3125 0 0.890625 -0.203125l0.1875 1.703125q-0.765625 0.328125 -1.734375 0.328125q-0.59375 0 -1.078125 -0.203125q-0.46875 -0.203125 -0.703125 -0.515625q-0.21875 -0.3125 -0.296875 -0.859375q-0.078125 -0.375 -0.078125 -1.546875l0 -3.609375l-1.0 0l0 -1.75l1.0 0l0 -1.65625l2.203125 -1.28125l0 2.9375l1.5 0zm6.328125 5.65625l2.1875 0.359375q-0.421875 1.203125 -1.328125 1.84375q-0.90625 0.625 -2.28125 0.625q-2.15625 0 -3.203125 -1.421875q-0.8125 -1.125 -0.8125 -2.859375q0 -2.0625 1.078125 -3.21875q1.078125 -1.171875 2.71875 -1.171875q1.859375 0 2.921875 1.21875q1.078125 1.21875 1.03125 3.75l-5.5 0q0.015625 0.96875 0.515625 1.515625q0.515625 0.546875 1.28125 0.546875q0.515625 0 0.859375 -0.28125q0.359375 -0.28125 0.53125 -0.90625zm0.125 -2.21875q-0.015625 -0.953125 -0.484375 -1.453125q-0.46875 -0.5 -1.140625 -0.5q-0.71875 0 -1.1875 0.53125q-0.46875 0.515625 -0.46875 1.421875l3.28125 0zm6.0703125 4.859375l-2.1875 0l0 -8.296875l2.03125 0l0 1.171875q0.53125 -0.828125 0.9375 -1.09375q0.421875 -0.265625 0.953125 -0.265625q0.75 0 1.453125 0.40625l-0.6875 1.921875q-0.546875 -0.359375 -1.03125 -0.359375q-0.453125 0 -0.78125 0.25q-0.3125 0.25 -0.5 0.921875q-0.1875 0.65625 -0.1875 2.78125l0 2.5625z" fill-rule="nonzero"/><path fill="#000000" fill-opacity="0.0" d="m342.4908 63.216534l0 -20.53543" fill-rule="evenodd"/><path stroke="#000000" stroke-width="1.0" stroke-linejoin="round" stroke-linecap="butt" d="m342.4908 63.216534l0 -17.108341" fill-rule="evenodd"/><path fill="#000000" stroke="#000000" stroke-width="1.0" stroke-linecap="butt" d="m342.4908 46.10819l1.1245728 1.1245842l-1.1245728 -3.0897675l-1.1245728 3.0897675z" fill-rule="evenodd"/><path fill="#000000" fill-opacity="0.0" d="m342.4908 43.233597l61.66928 0l0 16.818897l-61.66928 0z" fill-rule="evenodd"/><path fill="#000000" d="m357.25516 57.403046l0 -11.453125l5.078125 0q1.53125 0 2.328125 0.3125q0.796875 0.296875 1.265625 1.078125q0.484375 0.78125 0.484375 1.734375q0 1.21875 -0.796875 2.0625q-0.78125 0.828125 -2.4375 1.046875q0.609375 0.296875 0.921875 0.578125q0.65625 0.609375 1.25 1.515625l2.0 3.125l-1.90625 0l-1.515625 -2.390625q-0.671875 -1.03125 -1.109375 -1.578125q-0.421875 -0.546875 -0.765625 -0.765625q-0.328125 -0.21875 -0.6875 -0.296875q-0.25 -0.0625 -0.84375 -0.0625l-1.75 0l0 5.09375l-1.515625 0zm1.515625 -6.40625l3.25 0q1.046875 0 1.625 -0.203125q0.59375 -0.21875 0.890625 -0.6875q0.3125 -0.484375 0.3125 -1.03125q0 -0.8125 -0.59375 -1.328125q-0.59375 -0.53125 -1.859375 -0.53125l-3.625 0l0 3.78125zm15.3671875 1.90625l0 -1.34375l4.859375 0l0 4.25q-1.125 0.890625 -2.3125 1.34375q-1.1875 0.453125 -2.4375 0.453125q-1.6875 0 -3.0625 -0.71875q-1.375 -0.734375 -2.078125 -2.09375q-0.703125 -1.375 -0.703125 -3.0625q0 -1.671875 0.6875 -3.125q0.703125 -1.453125 2.015625 -2.15625q1.3125 -0.703125 3.03125 -0.703125q1.234375 0 2.234375 0.40625q1.015625 0.40625 1.578125 1.125q0.578125 0.71875 0.875 1.875l-1.375 0.375q-0.25 -0.875 -0.640625 -1.375q-0.375 -0.5 -1.09375 -0.796875q-0.703125 -0.3125 -1.578125 -0.3125q-1.03125 0 -1.796875 0.328125q-0.75 0.3125 -1.21875 0.828125q-0.46875 0.515625 -0.71875 1.125q-0.4375 1.0625 -0.4375 2.3125q0 1.53125 0.515625 2.5625q0.53125 1.03125 1.53125 1.53125q1.015625 0.5 2.15625 0.5q0.984375 0 1.921875 -0.375q0.9375 -0.390625 1.421875 -0.8125l0 -2.140625l-3.375 0zm7.0234375 4.5l0 -11.453125l4.296875 0q1.3125 0 2.109375 0.34375q0.796875 0.34375 1.234375 1.078125q0.453125 0.71875 0.453125 1.5q0 0.734375 -0.40625 1.390625q-0.390625 0.640625 -1.1875 1.046875q1.03125 0.296875 1.59375 1.03125q0.5625 0.734375 0.5625 1.734375q0 0.8125 -0.34375 1.5q-0.34375 0.6875 -0.84375 1.0625q-0.5 0.375 -1.25 0.578125q-0.75 0.1875 -1.84375 0.1875l-4.375 0zm1.515625 -6.640625l2.484375 0q1.0 0 1.4375 -0.140625q0.578125 -0.171875 0.875 -0.5625q0.296875 -0.40625 0.296875 -1.0q0 -0.578125 -0.28125 -1.0q-0.265625 -0.4375 -0.78125 -0.59375q-0.5 -0.171875 -1.734375 -0.171875l-2.296875 0l0 3.46875zm0 5.28125l2.859375 0q0.734375 0 1.03125 -0.046875q0.515625 -0.09375 0.859375 -0.3125q0.359375 -0.21875 0.578125 -0.640625q0.234375 -0.421875 0.234375 -0.96875q0 -0.640625 -0.328125 -1.109375q-0.328125 -0.46875 -0.90625 -0.65625q-0.578125 -0.203125 -1.671875 -0.203125l-2.65625 0l0 3.9375z" fill-rule="nonzero"/><path fill="#000000" fill-opacity="0.0" d="m131.4147 190.49344l0 -147.84253" fill-rule="evenodd"/><path stroke="#000000" stroke-width="1.0" stroke-linejoin="round" stroke-linecap="butt" d="m131.4147 190.49344l0 -144.41544" fill-rule="evenodd"/><path fill="#000000" stroke="#000000" stroke-width="1.0" stroke-linecap="butt" d="m131.4147 46.078007l1.1245728 1.1245804l-1.1245728 -3.0897675l-1.124588 3.0897675z" fill-rule="evenodd"/><path fill="#000000" fill-opacity="0.0" d="m106.34646 199.26509l0 -156.0315l20.346458 0l0 156.0315z" fill-rule="evenodd"/><path fill="#000000" d="m121.79968 176.5935l-10.484375 4.0625l0 -1.5l7.609375 -2.734375q0.921875 -0.328125 1.71875 -0.546875q-0.859375 -0.25 -1.71875 -0.5625l-7.609375 -2.84375l0 -1.40625l10.484375 4.109375l0 1.421875zm-4.109375 -11.697479l-1.234375 0l-0.015625 -4.4375l3.90625 0q0.8125 1.03125 1.21875 2.125q0.40625 1.078125 0.40625 2.21875q0 1.546875 -0.65625 2.8125q-0.65625 1.265625 -1.90625 1.90625q-1.265625 0.640625 -2.8125 0.640625q-1.53125 0 -2.84375 -0.640625q-1.328125 -0.640625 -1.96875 -1.84375q-0.65625 -1.203125 -0.65625 -2.765625q0 -1.140625 0.375 -2.0625q0.359375 -0.921875 1.03125 -1.4375q0.65625 -0.53125 1.703125 -0.796875l0.34375 1.25q-0.796875 0.234375 -1.25 0.59375q-0.46875 0.34375 -0.734375 1.0q-0.28125 0.65625 -0.28125 1.4375q0 0.953125 0.296875 1.65625q0.28125 0.6875 0.765625 1.125q0.46875 0.421875 1.03125 0.65625q0.96875 0.390625 2.109375 0.390625q1.40625 0 2.359375 -0.46875q0.9375 -0.484375 1.390625 -1.40625q0.453125 -0.9375 0.453125 -1.96875q0 -0.90625 -0.34375 -1.765625q-0.34375 -0.859375 -0.734375 -1.296875l-1.953125 0l0 3.078125zm4.109375 -5.3376007l-10.484375 -4.015625l0 -1.5l10.484375 -4.296875l0 1.578125l-3.171875 1.234375l0 4.375l3.171875 1.15625l0 1.46875zm-4.3125 -3.015625l0 -3.5625l-2.90625 1.09375q-1.3125 0.5 -2.171875 0.75q1.015625 0.203125 2.0 0.5625l3.078125 1.15625zm0.9375 -10.69458l-0.109375 -1.3125q0.78125 -0.09375 1.296875 -0.421875q0.5 -0.34375 0.8125 -1.0625q0.3125 -0.71875 0.3125 -1.609375q0 -0.796875 -0.234375 -1.40625q-0.234375 -0.609375 -0.640625 -0.90625q-0.421875 -0.296875 -0.90625 -0.296875q-0.5 0 -0.859375 0.296875q-0.375 0.28125 -0.625 0.9375q-0.171875 0.421875 -0.515625 1.875q-0.34375 1.4375 -0.65625 2.015625q-0.390625 0.75 -0.96875 1.125q-0.59375 0.359375 -1.3125 0.359375q-0.796875 0 -1.484375 -0.4375q-0.6875 -0.453125 -1.046875 -1.3125q-0.359375 -0.875 -0.359375 -1.9375q0 -1.171875 0.375 -2.0625q0.375 -0.890625 1.109375 -1.359375q0.734375 -0.484375 1.65625 -0.515625l0.09375 1.328125q-1.0 0.109375 -1.5 0.734375q-0.515625 0.609375 -0.515625 1.8125q0 1.265625 0.46875 1.84375q0.46875 0.578125 1.109375 0.578125q0.5625 0 0.9375 -0.421875q0.359375 -0.390625 0.75 -2.078125q0.375 -1.703125 0.65625 -2.328125q0.421875 -0.921875 1.078125 -1.359375q0.640625 -0.4375 1.484375 -0.4375q0.84375 0 1.59375 0.484375q0.734375 0.484375 1.140625 1.390625q0.40625 0.890625 0.40625 2.015625q0 1.421875 -0.40625 2.390625q-0.421875 0.953125 -1.25 1.5q-0.828125 0.546875 -1.890625 0.578125zm6.296875 -10.025604l-1.203125 0.140625q0.109375 -0.421875 0.109375 -0.734375q0 -0.4375 -0.140625 -0.6875q-0.140625 -0.265625 -0.40625 -0.421875q-0.1875 -0.125 -0.953125 -0.390625q-0.109375 -0.046875 -0.3125 -0.125l-7.609375 2.890625l0 -1.390625l4.390625 -1.578125q0.84375 -0.3125 1.765625 -0.546875q-0.890625 -0.234375 -1.734375 -0.53125l-4.421875 -1.625l0 -1.296875l7.71875 2.890625q1.25 0.46875 1.734375 0.734375q0.625 0.34375 0.921875 0.78125q0.296875 0.4375 0.296875 1.0625q0 0.375 -0.15625 0.828125zm-2.921875 -7.390625l-7.59375 0l0 -1.15625l1.078125 0q-1.25 -0.84375 -1.25 -2.421875q0 -0.6875 0.25 -1.265625q0.234375 -0.578125 0.640625 -0.859375q0.40625 -0.28125 0.953125 -0.40625q0.359375 -0.0625 1.25 -0.0625l4.671875 0l0 1.28125l-4.625 0q-0.78125 0 -1.171875 0.15625q-0.390625 0.15625 -0.625 0.546875q-0.234375 0.375 -0.234375 0.890625q0 0.8125 0.53125 1.421875q0.515625 0.59375 1.96875 0.59375l4.15625 0l0 1.28125zm-2.78125 -13.104233l0.15625 -1.265625q1.3125 0.203125 2.0625 1.0625q0.734375 0.84375 0.734375 2.09375q0 1.5625 -1.015625 2.515625q-1.03125 0.9375 -2.921875 0.9375q-1.234375 0 -2.15625 -0.40625q-0.921875 -0.40625 -1.375 -1.234375q-0.46875 -0.84375 -0.46875 -1.8125q0 -1.25 0.625 -2.03125q0.625 -0.78125 1.765625 -1.015625l0.203125 1.265625q-0.765625 0.171875 -1.15625 0.625q-0.390625 0.453125 -0.390625 1.09375q0 0.984375 0.703125 1.59375q0.703125 0.609375 2.203125 0.609375q1.53125 0 2.234375 -0.578125q0.6875 -0.59375 0.6875 -1.546875q0 -0.75 -0.453125 -1.265625q-0.46875 -0.515625 -1.4375 -0.640625zm-0.59375 -6.1344757l-0.109375 -1.3125q0.78125 -0.09375 1.296875 -0.421875q0.5 -0.34375 0.8125 -1.0625q0.3125 -0.71875 0.3125 -1.609375q0 -0.796875 -0.234375 -1.40625q-0.234375 -0.609375 -0.640625 -0.90625q-0.421875 -0.296875 -0.90625 -0.296875q-0.5 0 -0.859375 0.296875q-0.375 0.28125 -0.625 0.9375q-0.171875 0.421875 -0.515625 1.875q-0.34375 1.4375 -0.65625 2.015625q-0.390625 0.75 -0.96875 1.125q-0.59375 0.359375 -1.3125 0.359375q-0.796875 0 -1.484375 -0.4375q-0.6875 -0.453125 -1.046875 -1.3125q-0.359375 -0.875 -0.359375 -1.9375q0 -1.171875 0.375 -2.0625q0.375 -0.890625 1.109375 -1.359375q0.734375 -0.484375 1.65625 -0.515625l0.09375 1.328125q-1.0 0.109375 -1.5 0.734375q-0.515625 0.609375 -0.515625 1.8125q0 1.265625 0.46875 1.84375q0.46875 0.578125 1.109375 0.578125q0.5625 0 0.9375 -0.421875q0.359375 -0.390625 0.75 -2.078125q0.375 -1.703125 0.65625 -2.328125q0.421875 -0.921875 1.078125 -1.359375q0.640625 -0.4375 1.484375 -0.4375q0.84375 0 1.59375 0.484375q0.734375 0.484375 1.140625 1.390625q0.40625 0.890625 0.40625 2.015625q0 1.421875 -0.40625 2.390625q-0.421875 0.953125 -1.25 1.5q-0.828125 0.546875 -1.890625 0.578125zm-5.640625 -10.088104l-1.46875 0l0 -1.296875l1.46875 0l0 1.296875zm9.015625 0l-7.59375 0l0 -1.296875l7.59375 0l0 1.296875zm0.625 -3.0217743l0.1875 -1.25q0.578125 -0.078125 0.84375 -0.4375q0.359375 -0.46875 0.359375 -1.3125q0 -0.890625 -0.359375 -1.375q-0.359375 -0.484375 -1.0 -0.65625q-0.390625 -0.109375 -1.65625 -0.09375q1.0 0.84375 1.0 2.109375q0 1.5625 -1.125 2.421875q-1.140625 0.859375 -2.71875 0.859375q-1.09375 0 -2.0 -0.390625q-0.921875 -0.40625 -1.421875 -1.140625q-0.5 -0.75 -0.5 -1.765625q0 -1.34375 1.078125 -2.21875l-0.90625 0l0 -1.1875l6.5625 0q1.78125 0 2.515625 0.359375q0.734375 0.359375 1.15625 1.15625q0.4375 0.78125 0.4375 1.921875q0 1.359375 -0.609375 2.203125q-0.609375 0.828125 -1.84375 0.796875zm-4.5625 -1.0625q1.5 0 2.1875 -0.59375q0.6875 -0.59375 0.6875 -1.484375q0 -0.890625 -0.6875 -1.484375q-0.6875 -0.609375 -2.140625 -0.609375q-1.390625 0 -2.09375 0.625q-0.71875 0.609375 -0.71875 1.484375q0 0.859375 0.703125 1.46875q0.6875 0.59375 2.0625 0.59375zm3.9375 -7.322983l-7.59375 0l0 -1.15625l1.078125 0q-1.25 -0.84375 -1.25 -2.421875q0 -0.6875 0.25 -1.265625q0.234375 -0.578125 0.640625 -0.859375q0.40625 -0.28125 0.953125 -0.40625q0.359375 -0.0625 1.25 -0.0625l4.671875 0l0 1.28125l-4.625 0q-0.78125 0 -1.171875 0.15625q-0.390625 0.15625 -0.625 0.546875q-0.234375 0.375 -0.234375 0.890625q0 0.8125 0.53125 1.421875q0.515625 0.59375 1.96875 0.59375l4.15625 0l0 1.28125zm-0.9375 -13.104233q0.609375 0.71875 0.859375 1.375q0.25 0.65625 0.25 1.421875q0 1.25 -0.609375 1.921875q-0.609375 0.671875 -1.5625 0.671875q-0.5625 0 -1.015625 -0.25q-0.46875 -0.25 -0.75 -0.65625q-0.28125 -0.421875 -0.421875 -0.9375q-0.09375 -0.375 -0.1875 -1.140625q-0.1875 -1.5625 -0.453125 -2.296875q-0.265625 -0.015625 -0.328125 -0.015625q-0.796875 0 -1.109375 0.375q-0.4375 0.484375 -0.4375 1.453125q0 0.921875 0.328125 1.359375q0.3125 0.421875 1.109375 0.625l-0.171875 1.265625q-0.796875 -0.171875 -1.296875 -0.5625q-0.5 -0.390625 -0.765625 -1.140625q-0.265625 -0.75 -0.265625 -1.71875q0 -0.984375 0.234375 -1.59375q0.21875 -0.609375 0.5625 -0.890625q0.34375 -0.28125 0.875 -0.40625q0.328125 -0.0625 1.1875 -0.0625l1.71875 0q1.796875 0 2.28125 -0.078125q0.46875 -0.078125 0.90625 -0.328125l0 1.34375q-0.40625 0.203125 -0.9375 0.265625zm-2.875 0.109375q0.28125 0.703125 0.484375 2.09375q0.109375 0.796875 0.265625 1.125q0.140625 0.328125 0.421875 0.515625q0.265625 0.171875 0.59375 0.171875q0.515625 0 0.859375 -0.390625q0.34375 -0.390625 0.34375 -1.140625q0 -0.734375 -0.3125 -1.3125q-0.328125 -0.59375 -0.890625 -0.859375q-0.4375 -0.203125 -1.296875 -0.203125l-0.46875 0zm3.8125 -3.2761078l-10.484375 0l0 -1.28125l10.484375 0l0 1.28125zm-2.265625 -2.7717743l-0.203125 -1.265625q0.765625 -0.109375 1.171875 -0.59375q0.40625 -0.5 0.40625 -1.375q0 -0.890625 -0.359375 -1.3125q-0.359375 -0.4375 -0.84375 -0.4375q-0.4375 0 -0.6875 0.375q-0.171875 0.265625 -0.4375 1.3125q-0.359375 1.421875 -0.609375 1.96875q-0.265625 0.546875 -0.734375 0.828125q-0.46875 0.28125 -1.015625 0.28125q-0.515625 0 -0.9375 -0.21875q-0.4375 -0.234375 -0.734375 -0.640625q-0.21875 -0.296875 -0.359375 -0.8125q-0.15625 -0.53125 -0.15625 -1.125q0 -0.890625 0.265625 -1.5625q0.25 -0.671875 0.6875 -1.0q0.4375 -0.328125 1.171875 -0.4375l0.171875 1.25q-0.578125 0.09375 -0.90625 0.5q-0.34375 0.40625 -0.34375 1.15625q0 0.890625 0.296875 1.28125q0.296875 0.375 0.6875 0.375q0.25 0 0.453125 -0.15625q0.203125 -0.15625 0.34375 -0.5q0.078125 -0.1875 0.328125 -1.140625q0.359375 -1.359375 0.59375 -1.890625q0.234375 -0.546875 0.6875 -0.859375q0.4375 -0.3125 1.09375 -0.3125q0.640625 0 1.21875 0.375q0.5625 0.375 0.875 1.09375q0.3125 0.703125 0.3125 1.59375q0 1.484375 -0.609375 2.265625q-0.625 0.765625 -1.828125 0.984375z" fill-rule="nonzero"/><path fill="#000000" fill-opacity="0.0" d="m433.54593 153.8924l117.13388 0l0 20.34645l-117.13388 0z" fill-rule="evenodd"/><path fill="#000000" d="m446.91608 168.86562l0 -9.546875l6.4375 0l0 1.125l-5.171875 0l0 2.96875l4.46875 0l0 1.125l-4.46875 0l0 4.328125l-1.265625 0zm8.016357 0l0 -9.546875l1.265625 0l0 8.421875l4.703125 0l0 1.125l-5.96875 0zm6.4281006 0l3.65625 -9.546875l1.359375 0l3.90625 9.546875l-1.4375 0l-1.109375 -2.890625l-3.984375 0l-1.046875 2.890625l-1.34375 0zm2.75 -3.921875l3.234375 0l-1.0 -2.640625q-0.453125 -1.203125 -0.671875 -1.96875q-0.1875 0.90625 -0.515625 1.8125l-1.046875 2.796875zm6.749115 0.859375l1.203125 -0.109375q0.078125 0.71875 0.390625 1.1875q0.3125 0.453125 0.953125 0.734375q0.65625 0.28125 1.46875 0.28125q0.71875 0 1.265625 -0.21875q0.5625 -0.21875 0.828125 -0.578125q0.265625 -0.375 0.265625 -0.828125q0 -0.453125 -0.265625 -0.78125q-0.25 -0.328125 -0.84375 -0.5625q-0.390625 -0.15625 -1.703125 -0.46875q-1.3125 -0.3125 -1.84375 -0.59375q-0.671875 -0.359375 -1.015625 -0.890625q-0.328125 -0.53125 -0.328125 -1.1875q0 -0.71875 0.40625 -1.34375q0.40625 -0.625 1.1875 -0.953125q0.796875 -0.328125 1.765625 -0.328125q1.046875 0 1.859375 0.34375q0.8125 0.34375 1.25 1.015625q0.4375 0.65625 0.46875 1.484375l-1.203125 0.09375q-0.109375 -0.90625 -0.671875 -1.359375q-0.5625 -0.46875 -1.65625 -0.46875q-1.140625 0 -1.671875 0.421875q-0.515625 0.421875 -0.515625 1.015625q0 0.515625 0.359375 0.84375q0.375 0.328125 1.90625 0.6875q1.546875 0.34375 2.109375 0.59375q0.84375 0.390625 1.234375 0.984375q0.390625 0.578125 0.390625 1.359375q0 0.75 -0.4375 1.4375q-0.421875 0.671875 -1.25 1.046875q-0.8125 0.359375 -1.828125 0.359375q-1.296875 0 -2.171875 -0.375q-0.875 -0.375 -1.375 -1.125q-0.5 -0.765625 -0.53125 -1.71875zm9.3585205 3.0625l0 -9.546875l1.265625 0l0 3.921875l4.953125 0l0 -3.921875l1.265625 0l0 9.546875l-1.265625 0l0 -4.5l-4.953125 0l0 4.5l-1.265625 0zm20.09378 -3.34375l1.265625 0.3125q-0.390625 1.5625 -1.421875 2.375q-1.03125 0.8125 -2.53125 0.8125q-1.5312805 0 -2.5000305 -0.625q-0.96875 -0.625 -1.484375 -1.8125q-0.5 -1.1875 -0.5 -2.5625q0 -1.484375 0.5625 -2.59375q0.578125 -1.109375 1.625 -1.6875q1.0625 -0.578125 2.3281555 -0.578125q1.421875 0 2.390625 0.734375q0.984375 0.71875 1.375 2.046875l-1.25 0.296875q-0.328125 -1.046875 -0.96875 -1.515625q-0.625 -0.484375 -1.578125 -0.484375q-1.0937805 0 -1.8437805 0.53125q-0.734375 0.53125 -1.03125 1.421875q-0.296875 0.875 -0.296875 1.828125q0 1.21875 0.34375 2.125q0.359375 0.90625 1.109375 1.359375q0.75 0.4375 1.625 0.4375q1.0625305 0 1.7969055 -0.609375q0.734375 -0.609375 0.984375 -1.8125zm2.7657776 3.34375l0 -9.546875l1.265625 0l0 8.421875l4.703125 0l0 1.125l-5.96875 0zm7.0843506 -4.640625q0 -2.375 1.28125 -3.71875q1.2812195 -1.34375 3.2968445 -1.34375q1.3125 0 2.375 0.625q1.0625 0.625 1.609375 1.765625q0.5625 1.125 0.5625 2.5625q0 1.4375 -0.59375 2.59375q-0.578125 1.140625 -1.65625 1.734375q-1.0625 0.578125 -2.3125 0.578125q-1.34375 0 -2.40625 -0.640625q-1.0624695 -0.65625 -1.6093445 -1.78125q-0.546875 -1.125 -0.546875 -2.375zm1.3125 0.015625q0 1.71875 0.9218445 2.71875q0.921875 0.984375 2.328125 0.984375q1.421875 0 2.34375 -1.0q0.921875 -1.0 0.921875 -2.84375q0 -1.15625 -0.40625 -2.03125q-0.390625 -0.875 -1.15625 -1.34375q-0.75 -0.484375 -1.6875 -0.484375q-1.34375 0 -2.3125 0.921875q-0.9530945 0.921875 -0.9530945 3.078125zm16.242035 1.28125l1.265625 0.3125q-0.390625 1.5625 -1.421875 2.375q-1.03125 0.8125 -2.53125 0.8125q-1.53125 0 -2.5 -0.625q-0.96875 -0.625 -1.484375 -1.8125q-0.5 -1.1875 -0.5 -2.5625q0 -1.484375 0.5625 -2.59375q0.578125 -1.109375 1.625 -1.6875q1.0625 -0.578125 2.328125 -0.578125q1.421875 0 2.390625 0.734375q0.984375 0.71875 1.375 2.046875l-1.25 0.296875q-0.328125 -1.046875 -0.96875 -1.515625q-0.625 -0.484375 -1.578125 -0.484375q-1.09375 0 -1.84375 0.53125q-0.734375 0.53125 -1.03125 1.421875q-0.296875 0.875 -0.296875 1.828125q0 1.21875 0.34375 2.125q0.359375 0.90625 1.109375 1.359375q0.75 0.4375 1.625 0.4375q1.0625 0 1.796875 -0.609375q0.734375 -0.609375 0.984375 -1.8125zm2.765808 3.34375l0 -9.546875l1.265625 0l0 4.734375l4.734375 -4.734375l1.71875 0l-4.0 3.875l4.171875 5.671875l-1.65625 0l-3.40625 -4.828125l-1.5625 1.515625l0 3.3125l-1.265625 0z" fill-rule="nonzero"/><path fill="#000000" d="m78.00758 320.60046l0 0c0 -1.782959 1.4453812 -3.228363 3.2283478 -3.228363l0 0c0.8562088 0 1.6773529 0.34014893 2.2827835 0.94558716c0.60543823 0.6054077 0.94556427 1.4265747 0.94556427 2.2827759l0 0c0 1.782959 -1.4453812 3.2283325 -3.2283478 3.2283325l0 0c-1.7829666 0 -3.2283478 -1.4453735 -3.2283478 -3.2283325z" fill-rule="evenodd"/><path stroke="#000000" stroke-width="1.0" stroke-linejoin="round" stroke-linecap="butt" d="m78.00758 320.60046l0 0c0 -1.782959 1.4453812 -3.228363 3.2283478 -3.228363l0 0c0.8562088 0 1.6773529 0.34014893 2.2827835 0.94558716c0.60543823 0.6054077 0.94556427 1.4265747 0.94556427 2.2827759l0 0c0 1.782959 -1.4453812 3.2283325 -3.2283478 3.2283325l0 0c-1.7829666 0 -3.2283478 -1.4453735 -3.2283478 -3.2283325z" fill-rule="evenodd"/><path fill="#000000" fill-opacity="0.0" d="m84.46428 320.60046l258.01575 0l0 -98.267715" fill-rule="evenodd"/><path stroke="#000000" stroke-width="1.0" stroke-linejoin="round" stroke-linecap="butt" d="m84.46428 320.60046l258.01575 0l0 -94.84064" fill-rule="evenodd"/><path fill="#000000" stroke="#000000" stroke-width="1.0" stroke-linecap="butt" d="m342.48004 225.75983l1.1245728 1.124588l-1.1245728 -3.0897675l-1.1246033 3.0897675z" fill-rule="evenodd"/><path fill="#000000" fill-opacity="0.0" d="m384.26773 356.44357l1.4172974 -132.56693" fill-rule="evenodd"/><path stroke="#000000" stroke-width="1.0" stroke-linejoin="round" stroke-linecap="butt" d="m384.30435 353.0167l1.3440552 -125.71315" fill-rule="evenodd"/><path fill="#000000" stroke="#000000" stroke-width="1.0" stroke-linecap="butt" d="m384.30435 353.0167l-1.1124878 -1.1365662l1.0914917 3.1016235l1.1575317 -3.0775757z" fill-rule="evenodd"/><path fill="#000000" stroke="#000000" stroke-width="1.0" stroke-linecap="butt" d="m385.6484 227.30353l1.1124878 1.1365509l-1.0914917 -3.1016235l-1.1575317 3.0775757z" fill-rule="evenodd"/><path fill="#f9cb9c" d="m334.96063 357.38846l98.61417 0l0 26.803131l-98.61417 0z" fill-rule="evenodd"/><path stroke="#000000" stroke-width="1.0" stroke-linejoin="round" stroke-linecap="butt" d="m334.96063 357.38846l98.61417 0l0 26.803131l-98.61417 0z" fill-rule="evenodd"/><path fill="#000000" d="m366.44125 375.87003l-3.75 -10.484375l2.296875 0l2.640625 7.75l2.578125 -7.75l2.25 0l-3.765625 10.484375l-2.25 0zm7.1037292 0l0 -10.484375l4.453125 0q1.6875 0 2.4375 0.28125q0.765625 0.28125 1.21875 1.0q0.46875 0.71875 0.46875 1.65625q0 1.171875 -0.703125 1.953125q-0.6875 0.765625 -2.0625 0.96875q0.6875 0.390625 1.125 0.875q0.453125 0.484375 1.203125 1.703125l1.28125 2.046875l-2.53125 0l-1.53125 -2.28125q-0.8125 -1.21875 -1.109375 -1.53125q-0.296875 -0.328125 -0.640625 -0.4375q-0.34375 -0.125 -1.0625 -0.125l-0.4375 0l0 4.375l-2.109375 0zm2.109375 -6.046875l1.578125 0q1.515625 0 1.890625 -0.125q0.390625 -0.140625 0.59375 -0.453125q0.21875 -0.3125 0.21875 -0.78125q0 -0.53125 -0.28125 -0.859375q-0.28125 -0.328125 -0.796875 -0.421875q-0.25 -0.03125 -1.546875 -0.03125l-1.65625 0l0 2.671875zm17.92804 6.046875l-2.3125 0l-0.90625 -2.390625l-4.203125 0l-0.859375 2.390625l-2.25 0l4.09375 -10.484375l2.234375 0l4.203125 10.484375zm-3.90625 -4.15625l-1.4375 -3.890625l-1.421875 3.890625l2.859375 0zm4.990509 4.15625l0 -10.484375l3.171875 0l1.90625 7.15625l1.890625 -7.15625l3.171875 0l0 10.484375l-1.96875 0l0 -8.265625l-2.078125 8.265625l-2.046875 0l-2.078125 -8.265625l0 8.265625l-1.96875 0z" fill-rule="nonzero"/><path fill="#000000" fill-opacity="0.0" d="m363.9239 352.2126l0 -156.03148l20.346466 0l0 156.03148z" fill-rule="evenodd"/><path fill="#000000" d="m379.85712 319.26715l-11.453125 -4.40625l0 -1.640625l11.453125 -4.6875l0 1.734375l-3.46875 1.328125l0 4.796875l3.46875 1.25l0 1.625zm-4.703125 -3.3125l0 -3.890625l-3.171875 1.203125q-1.453125 0.546875 -2.375 0.8125q1.09375 0.21875 2.1875 0.609375l3.359375 1.265625zm4.703125 -8.625l-11.453125 0l0 -3.953125q0 -1.328125 0.15625 -2.03125q0.234375 -0.984375 0.828125 -1.6875q0.765625 -0.90625 1.953125 -1.34375q1.1875 -0.453125 2.71875 -0.453125q1.3125 0 2.328125 0.3125q1.0 0.296875 1.65625 0.78125q0.65625 0.46875 1.046875 1.03125q0.375 0.5625 0.578125 1.375q0.1875 0.796875 0.1875 1.828125l0 4.140625zm-1.359375 -1.515625l0 -2.453125q0 -1.125 -0.203125 -1.765625q-0.21875 -0.65625 -0.59375 -1.03125q-0.546875 -0.546875 -1.453125 -0.84375q-0.90625 -0.296875 -2.203125 -0.296875q-1.796875 0 -2.765625 0.59375q-0.96875 0.578125 -1.296875 1.421875q-0.234375 0.609375 -0.234375 1.96875l0 2.40625l8.75 0zm1.359375 -10.0390625l-11.453125 0l0 -3.953125q0 -1.328125 0.15625 -2.03125q0.234375 -0.984375 0.828125 -1.6875q0.765625 -0.90625 1.953125 -1.34375q1.1875 -0.453125 2.71875 -0.453125q1.3125 0 2.328125 0.3125q1.0 0.296875 1.65625 0.78125q0.65625 0.46875 1.046875 1.03125q0.375 0.5625 0.578125 1.375q0.1875 0.796875 0.1875 1.828125l0 4.140625zm-1.359375 -1.515625l0 -2.453125q0 -1.125 -0.203125 -1.765625q-0.21875 -0.65625 -0.59375 -1.03125q-0.546875 -0.546875 -1.453125 -0.84375q-0.90625 -0.296875 -2.203125 -0.296875q-1.796875 0 -2.765625 0.59375q-0.96875 0.578125 -1.296875 1.421875q-0.234375 0.609375 -0.234375 1.96875l0 2.40625l8.75 0zm1.359375 -10.0703125l-11.453125 0l0 -5.078125q0 -1.53125 0.3125 -2.328125q0.296875 -0.796875 1.078125 -1.265625q0.78125 -0.484375 1.734375 -0.484375q1.21875 0 2.0625 0.796875q0.828125 0.78125 1.046875 2.4375q0.296875 -0.609375 0.578125 -0.921875q0.609375 -0.65625 1.515625 -1.25l3.125 -2.0l0 1.90625l-2.390625 1.515625q-1.03125 0.671875 -1.578125 1.109375q-0.546875 0.421875 -0.765625 0.765625q-0.21875 0.328125 -0.296875 0.6875q-0.0625 0.25 -0.0625 0.84375l0 1.75l5.09375 0l0 1.515625zm-6.40625 -1.515625l0 -3.25q0 -1.046875 -0.203125 -1.625q-0.21875 -0.59375 -0.6875 -0.890625q-0.484375 -0.3125 -1.03125 -0.3125q-0.8125 0 -1.328125 0.59375q-0.53125 0.59375 -0.53125 1.859375l0 3.625l3.78125 0zm6.609375 -8.7734375l-11.859375 -3.328125l0 -1.125l11.859375 3.3125l0 1.140625zm-0.203125 -5.6796875l-11.453125 0l0 -3.953125q0 -1.328125 0.15625 -2.03125q0.234375 -0.984375 0.828125 -1.6875q0.765625 -0.90625 1.953125 -1.34375q1.1875 -0.453125 2.71875 -0.453125q1.3125 0 2.328125 0.3125q1.0 0.296875 1.65625 0.78125q0.65625 0.46875 1.046875 1.03125q0.375 0.5625 0.578125 1.375q0.1875 0.796875 0.1875 1.828125l0 4.140625zm-1.359375 -1.515625l0 -2.453125q0 -1.125 -0.203125 -1.765625q-0.21875 -0.65625 -0.59375 -1.03125q-0.546875 -0.546875 -1.453125 -0.84375q-0.90625 -0.296875 -2.203125 -0.296875q-1.796875 0 -2.765625 0.59375q-0.96875 0.578125 -1.296875 1.421875q-0.234375 0.609375 -0.234375 1.96875l0 2.40625l8.75 0zm1.359375 -8.7734375l-11.453125 -4.4062347l0 -1.640625l11.453125 -4.6875l0 1.734375l-3.46875 1.328125l0 4.796875l3.46875 1.2499847l0 1.625zm-4.703125 -3.3124847l0 -3.890625l-3.171875 1.203125q-1.453125 0.546875 -2.375 0.8125q1.09375 0.21875 2.1875 0.609375l3.359375 1.265625zm4.703125 -10.359375l-10.109375 0l0 3.78125l-1.34375 0l0 -9.078125l1.34375 0l0 3.78125l10.109375 0l0 1.515625zm0 -4.3984375l-11.453125 -4.40625l0 -1.640625l11.453125 -4.6875l0 1.734375l-3.46875 1.328125l0 4.796875l3.46875 1.25l0 1.625zm-4.703125 -3.3125l0 -3.890625l-3.171875 1.203125q-1.453125 0.546875 -2.375 0.8125q1.09375 0.21875 2.1875 0.609375l3.359375 1.265625z" fill-rule="nonzero"/><path fill="#000000" fill-opacity="0.0" d="m230.48032 284.69028l70.93198 0l0 -61.511795l-0.0028381348 0" fill-rule="evenodd"/><path stroke="#000000" stroke-width="1.0" stroke-linejoin="round" stroke-linecap="butt" d="m230.48032 284.69028l70.93198 0l0 -58.084717" fill-rule="evenodd"/><path fill="#000000" stroke="#000000" stroke-width="1.0" stroke-linecap="butt" d="m301.4123 226.60556l1.1254883 1.1236572l-1.1271362 -3.0888367l-1.1220093 3.0906982z" fill-rule="evenodd"/><path fill="#000000" fill-opacity="0.0" d="m221.0645 264.02362l89.133865 0l0 20.346466l-89.133865 0z" fill-rule="evenodd"/><path fill="#000000" d="m233.76555 279.47684l0 -10.484375l3.625 0q1.21875 0 1.859375 0.140625q0.90625 0.203125 1.546875 0.75q0.828125 0.703125 1.234375 1.796875q0.40625 1.09375 0.40625 2.5q0 1.1875 -0.28125 2.109375q-0.265625 0.921875 -0.703125 1.53125q-0.4375 0.609375 -0.96875 0.953125q-0.515625 0.34375 -1.25 0.53125q-0.71875 0.171875 -1.671875 0.171875l-3.796875 0zm1.390625 -1.234375l2.25 0q1.03125 0 1.625 -0.1875q0.59375 -0.203125 0.9375 -0.546875q0.5 -0.5 0.765625 -1.328125q0.28125 -0.84375 0.28125 -2.03125q0 -1.640625 -0.546875 -2.515625q-0.53125 -0.890625 -1.3125 -1.1875q-0.546875 -0.21875 -1.796875 -0.21875l-2.203125 0l0 8.015625zm9.037399 -7.78125l0 -1.46875l1.296875 0l0 1.46875l-1.296875 0zm0 9.015625l0 -7.59375l1.296875 0l0 7.59375l-1.296875 0zm2.7405243 -2.265625l1.265625 -0.203125q0.109375 0.765625 0.59375 1.171875q0.5 0.40625 1.375 0.40625q0.890625 0 1.3125 -0.359375q0.4375 -0.359375 0.4375 -0.84375q0 -0.4375 -0.375 -0.6875q-0.265625 -0.171875 -1.3125 -0.4375q-1.421875 -0.359375 -1.96875 -0.609375q-0.546875 -0.265625 -0.828125 -0.734375q-0.28125 -0.46875 -0.28125 -1.015625q0 -0.515625 0.21875 -0.9375q0.234375 -0.4375 0.640625 -0.734375q0.296875 -0.21875 0.8125 -0.359375q0.53125 -0.15625 1.125 -0.15625q0.890625 0 1.5625 0.265625q0.671875 0.25 1.0 0.6875q0.328125 0.4375 0.4375 1.171875l-1.25 0.171875q-0.09375 -0.578125 -0.5 -0.90625q-0.40625 -0.34375 -1.15625 -0.34375q-0.890625 0 -1.28125 0.296875q-0.375 0.296875 -0.375 0.6875q0 0.25 0.15625 0.453125q0.15625 0.203125 0.5 0.34375q0.1875 0.078125 1.140625 0.328125q1.359375 0.359375 1.890625 0.59375q0.546875 0.234375 0.859375 0.6875q0.3125 0.4375 0.3125 1.09375q0 0.640625 -0.375 1.21875q-0.375 0.5625 -1.09375 0.875q-0.703125 0.3125 -1.59375 0.3125q-1.484375 0 -2.265625 -0.609375q-0.765625 -0.625 -0.984375 -1.828125zm7.84375 5.171875l0 -10.5l1.171875 0l0 0.984375q0.42189026 -0.578125 0.93751526 -0.859375q0.515625 -0.296875 1.265625 -0.296875q0.96875 0 1.71875 0.5q0.75 0.5 1.125 1.421875q0.375 0.90625 0.375 1.984375q0 1.171875 -0.421875 2.109375q-0.40625 0.921875 -1.21875 1.421875q-0.796875 0.5 -1.671875 0.5q-0.640625 0 -1.15625 -0.265625q-0.515625 -0.28125 -0.84375 -0.6875l0 3.6875l-1.2812653 0zm1.15625 -6.65625q0 1.453125 0.59376526 2.15625q0.609375 0.703125 1.453125 0.703125q0.859375 0 1.46875 -0.71875q0.609375 -0.734375 0.609375 -2.25q0 -1.453125 -0.609375 -2.171875q-0.59375 -0.734375 -1.421875 -0.734375q-0.8125 0 -1.453125 0.78125q-0.64064026 0.765625 -0.64064026 2.234375zm6.963608 3.75l0 -10.484375l1.28125 0l0 10.484375l-1.28125 0zm8.24054 -0.9375q-0.71875 0.609375 -1.375 0.859375q-0.65625 0.25 -1.421875 0.25q-1.25 0 -1.921875 -0.609375q-0.671875 -0.609375 -0.671875 -1.5625q0 -0.5625 0.25 -1.015625q0.25 -0.46875 0.65625 -0.75q0.421875 -0.28125 0.9375 -0.421875q0.375 -0.09375 1.140625 -0.1875q1.5625 -0.1875 2.296875 -0.453125q0.015625 -0.265625 0.015625 -0.328125q0 -0.796875 -0.375 -1.109375q-0.484375 -0.4375 -1.453125 -0.4375q-0.921875 0 -1.359375 0.328125q-0.421875 0.3125 -0.625 1.109375l-1.265625 -0.171875q0.171875 -0.796875 0.5625 -1.296875q0.390625 -0.5 1.140625 -0.765625q0.75 -0.265625 1.71875 -0.265625q0.984375 0 1.59375 0.234375q0.609375 0.21875 0.890625 0.5625q0.28125 0.34375 0.40625 0.875q0.0625 0.328125 0.0625 1.1875l0 1.71875q0 1.796875 0.078125 2.28125q0.078125 0.46875 0.328125 0.90625l-1.34375 0q-0.203125 -0.40625 -0.265625 -0.9375zm-0.109375 -2.875q-0.703125 0.28125 -2.09375 0.484375q-0.796875 0.109375 -1.125 0.265625q-0.328125 0.140625 -0.515625 0.421875q-0.171875 0.265625 -0.171875 0.59375q0 0.515625 0.390625 0.859375q0.390625 0.34375 1.140625 0.34375q0.734375 0 1.3125 -0.3125q0.59375 -0.328125 0.859375 -0.890625q0.203125 -0.4375 0.203125 -1.296875l0 -0.46875zm3.2448425 6.734375l-0.140625 -1.203125q0.421875 0.109375 0.734375 0.109375q0.4375 0 0.6875 -0.140625q0.265625 -0.140625 0.421875 -0.40625q0.125 -0.1875 0.390625 -0.953125q0.046875 -0.109375 0.125 -0.3125l-2.890625 -7.609375l1.390625 0l1.578125 4.390625q0.3125 0.84375 0.546875 1.765625q0.234375 -0.890625 0.53125 -1.734375l1.625 -4.421875l1.296875 0l-2.890625 7.71875q-0.46875 1.25 -0.734375 1.734375q-0.34375 0.625 -0.78125 0.921875q-0.4375 0.296875 -1.0625 0.296875q-0.375 0 -0.828125 -0.15625zm6.203125 -0.015625l0 -0.921875l8.53125 0l0 0.921875l-8.53125 0zm9.526093 -2.90625l0 -10.484375l7.59375 0l0 1.234375l-6.203125 0l0 3.203125l5.796875 0l0 1.234375l-5.796875 0l0 3.578125l6.4375 0l0 1.234375l-7.828125 0z" fill-rule="nonzero"/><path fill="#000000" fill-opacity="0.0" d="m106.41207 290.9265l123.338585 0l0 20.346466l-123.338585 0z" fill-rule="evenodd"/><path fill="#000000" d="m123.730934 305.89975l-1.078125 0l0 -9.546875l1.171875 0l0 3.40625q0.734375 -0.921875 1.890625 -0.921875q0.640625 0 1.203125 0.265625q0.578125 0.25 0.9375 0.71875q0.37499237 0.453125 0.5781174 1.109375q0.203125 0.65625 0.203125 1.40625q0 1.78125 -0.8749924 2.75q-0.875 0.96875 -2.109375 0.96875q-1.21875 0 -1.921875 -1.015625l0 0.859375zm0 -3.5q0 1.234375 0.328125 1.78125q0.5625 0.90625 1.5 0.90625q0.765625 0 1.328125 -0.65625q0.5625 -0.671875 0.5625 -2.0q0 -1.34375 -0.546875 -1.984375q-0.53125 -0.65625 -1.296875 -0.65625q-0.765625 0 -1.328125 0.671875q-0.546875 0.671875 -0.546875 1.9375zm6.287468 6.15625l-0.125 -1.09375q0.375 0.109375 0.65625 0.109375q0.390625 0 0.625 -0.140625q0.234375 -0.125 0.390625 -0.359375q0.109375 -0.171875 0.359375 -0.875q0.03125 -0.09375 0.109375 -0.28125l-2.625 -6.921875l1.265625 0l1.4375 4.0q0.28125 0.765625 0.5 1.59375q0.203125 -0.796875 0.46875 -1.578125l1.484375 -4.015625l1.171875 0l-2.625 7.015625q-0.421875 1.140625 -0.65625 1.578125q-0.3125 0.578125 -0.71875 0.84375q-0.40625 0.28125 -0.96875 0.28125q-0.328125 0 -0.75 -0.15625zm10.132675 -5.71875l1.203125 -0.109375q0.078125 0.71875 0.390625 1.1875q0.3125 0.453125 0.953125 0.734375q0.65625 0.28125 1.46875 0.28125q0.71875 0 1.265625 -0.21875q0.5625 -0.21875 0.828125 -0.578125q0.265625 -0.375 0.265625 -0.828125q0 -0.453125 -0.265625 -0.78125q-0.25 -0.328125 -0.84375 -0.5625q-0.390625 -0.15625 -1.703125 -0.46875q-1.3125 -0.3125 -1.84375 -0.59375q-0.671875 -0.359375 -1.015625 -0.890625q-0.328125 -0.53125 -0.328125 -1.1875q0 -0.71875 0.40625 -1.34375q0.40625 -0.625 1.1875 -0.953125q0.796875 -0.328125 1.765625 -0.328125q1.046875 0 1.859375 0.34375q0.8125 0.34375 1.25 1.015625q0.4375 0.65625 0.46875 1.484375l-1.203125 0.09375q-0.109375 -0.90625 -0.671875 -1.359375q-0.5625 -0.46875 -1.65625 -0.46875q-1.140625 0 -1.671875 0.421875q-0.515625 0.421875 -0.515625 1.015625q0 0.515625 0.359375 0.84375q0.375 0.328125 1.90625 0.6875q1.546875 0.34375 2.109375 0.59375q0.84375 0.390625 1.234375 0.984375q0.390625 0.578125 0.390625 1.359375q0 0.75 -0.4375 1.4375q-0.421875 0.671875 -1.25 1.046875q-0.8125 0.359375 -1.828125 0.359375q-1.296875 0 -2.171875 -0.375q-0.875 -0.375 -1.375 -1.125q-0.5 -0.765625 -0.53125 -1.71875zm13.68663 0.53125l1.15625 0.15625q-0.1875 1.1875 -0.96875 1.859375q-0.78125 0.671875 -1.921875 0.671875q-1.40625 0 -2.28125 -0.921875q-0.859375 -0.9375 -0.859375 -2.65625q0 -1.125 0.375 -1.96875q0.375 -0.84375 1.125 -1.25q0.765625 -0.421875 1.65625 -0.421875q1.125 0 1.84375 0.578125q0.71875 0.5625 0.921875 1.609375l-1.140625 0.171875q-0.171875 -0.703125 -0.59375 -1.046875q-0.40625 -0.359375 -0.984375 -0.359375q-0.890625 0 -1.453125 0.640625q-0.546875 0.640625 -0.546875 2.0q0 1.40625 0.53125 2.03125q0.546875 0.625 1.40625 0.625q0.6875 0 1.140625 -0.421875q0.46875 -0.421875 0.59375 -1.296875zm1.7109375 -0.921875q0 -1.921875 1.078125 -2.84375q0.890625 -0.765625 2.171875 -0.765625q1.421875 0 2.328125 0.9375q0.90625 0.921875 0.90625 2.578125q0 1.328125 -0.40625 2.09375q-0.390625 0.765625 -1.15625 1.1875q-0.765625 0.421875 -1.671875 0.421875q-1.453125 0 -2.359375 -0.921875q-0.890625 -0.9375 -0.890625 -2.6875zm1.203125 0q0 1.328125 0.578125 1.984375q0.59375 0.65625 1.46875 0.65625q0.875 0 1.453125 -0.65625q0.578125 -0.671875 0.578125 -2.03125q0 -1.28125 -0.59375 -1.9375q-0.578125 -0.65625 -1.4375 -0.65625q-0.875 0 -1.46875 0.65625q-0.578125 0.65625 -0.578125 1.984375zm9.209351 2.40625l0.171875 1.03125q-0.5 0.109375 -0.890625 0.109375q-0.640625 0 -1.0 -0.203125q-0.34375 -0.203125 -0.484375 -0.53125q-0.140625 -0.328125 -0.140625 -1.390625l0 -3.96875l-0.859375 0l0 -0.90625l0.859375 0l0 -1.71875l1.171875 -0.703125l0 2.421875l1.171875 0l0 0.90625l-1.171875 0l0 4.046875q0 0.5 0.046875 0.640625q0.0625 0.140625 0.203125 0.234375q0.140625 0.078125 0.40625 0.078125q0.203125 0 0.515625 -0.046875zm3.7029877 0l0.171875 1.03125q-0.5 0.109375 -0.890625 0.109375q-0.640625 0 -1.0 -0.203125q-0.34375 -0.203125 -0.484375 -0.53125q-0.140625 -0.328125 -0.140625 -1.390625l0 -3.96875l-0.859375 0l0 -0.90625l0.859375 0l0 -1.71875l1.171875 -0.703125l0 2.421875l1.171875 0l0 0.90625l-1.171875 0l0 4.046875q0 0.5 0.046875 0.640625q0.0625 0.140625 0.203125 0.234375q0.140625 0.078125 0.40625 0.078125q0.203125 0 0.515625 -0.046875zm4.9372406 1.046875l0 -9.546875l1.265625 0l0 8.421875l4.703125 0l0 1.125l-5.96875 0zm11.834351 -0.859375q-0.65625 0.5625 -1.265625 0.796875q-0.59375 0.21875 -1.28125 0.21875q-1.140625 0 -1.75 -0.546875q-0.609375 -0.5625 -0.609375 -1.4375q0 -0.5 0.21875 -0.921875q0.234375 -0.421875 0.609375 -0.671875q0.375 -0.25 0.84375 -0.390625q0.34375 -0.078125 1.046875 -0.171875q1.421875 -0.171875 2.09375 -0.40625q0 -0.234375 0 -0.296875q0 -0.71875 -0.328125 -1.015625q-0.453125 -0.390625 -1.34375 -0.390625q-0.8125 0 -1.21875 0.296875q-0.390625 0.28125 -0.578125 1.015625l-1.140625 -0.15625q0.15625 -0.734375 0.515625 -1.1875q0.359375 -0.453125 1.03125 -0.6875q0.671875 -0.25 1.5625 -0.25q0.890625 0 1.4375 0.203125q0.5625 0.203125 0.8125 0.53125q0.265625 0.3125 0.375 0.796875q0.046875 0.296875 0.046875 1.078125l0 1.5625q0 1.625 0.078125 2.0625q0.078125 0.4375 0.296875 0.828125l-1.21875 0q-0.1875 -0.359375 -0.234375 -0.859375zm-0.09375 -2.609375q-0.640625 0.265625 -1.921875 0.4375q-0.71875 0.109375 -1.015625 0.25q-0.296875 0.125 -0.46875 0.375q-0.15625 0.25 -0.15625 0.546875q0 0.46875 0.34375 0.78125q0.359375 0.3125 1.046875 0.3125q0.671875 0 1.203125 -0.296875q0.53125 -0.296875 0.78125 -0.8125q0.1875 -0.390625 0.1875 -1.171875l0 -0.421875zm2.9749756 3.46875l0 -6.90625l1.0625 0l0 1.046875q0.40625 -0.734375 0.734375 -0.96875q0.34375 -0.234375 0.765625 -0.234375q0.59375 0 1.203125 0.375l-0.40625 1.078125q-0.4375 -0.25 -0.859375 -0.25q-0.390625 0 -0.703125 0.234375q-0.296875 0.234375 -0.421875 0.640625q-0.203125 0.625 -0.203125 1.359375l0 3.625l-1.171875 0zm3.9852448 -2.0625l1.15625 -0.1875q0.109375 0.703125 0.546875 1.078125q0.453125 0.359375 1.25 0.359375q0.8125 0 1.203125 -0.328125q0.390625 -0.328125 0.390625 -0.765625q0 -0.390625 -0.359375 -0.625q-0.234375 -0.15625 -1.1875 -0.390625q-1.296875 -0.328125 -1.796875 -0.5625q-0.484375 -0.25 -0.75 -0.65625q-0.25 -0.421875 -0.25 -0.9375q0 -0.453125 0.203125 -0.84375q0.21875 -0.40625 0.578125 -0.671875q0.28125 -0.1875 0.75 -0.328125q0.46875 -0.140625 1.015625 -0.140625q0.8125 0 1.421875 0.234375q0.609375 0.234375 0.90625 0.640625q0.296875 0.390625 0.40625 1.0625l-1.140625 0.15625q-0.078125 -0.53125 -0.453125 -0.828125q-0.375 -0.3125 -1.0625 -0.3125q-0.8125 0 -1.15625 0.265625q-0.34375 0.265625 -0.34375 0.625q0 0.234375 0.140625 0.421875q0.15625 0.1875 0.453125 0.3125q0.171875 0.0625 1.03125 0.296875q1.25 0.328125 1.734375 0.546875q0.5 0.203125 0.78125 0.609375q0.28125 0.40625 0.28125 1.0q0 0.59375 -0.34375 1.109375q-0.34375 0.515625 -1.0 0.796875q-0.640625 0.28125 -1.453125 0.28125q-1.34375 0 -2.046875 -0.5625q-0.703125 -0.5625 -0.90625 -1.65625zm6.6953125 -1.390625q0 -1.921875 1.078125 -2.84375q0.890625 -0.765625 2.171875 -0.765625q1.421875 0 2.328125 0.9375q0.90625 0.921875 0.90625 2.578125q0 1.328125 -0.40625 2.09375q-0.390625 0.765625 -1.15625 1.1875q-0.765625 0.421875 -1.671875 0.421875q-1.453125 0 -2.359375 -0.921875q-0.890625 -0.9375 -0.890625 -2.6875zm1.203125 0q0 1.328125 0.578125 1.984375q0.59375 0.65625 1.46875 0.65625q0.875 0 1.453125 -0.65625q0.578125 -0.671875 0.578125 -2.03125q0 -1.28125 -0.59375 -1.9375q-0.578125 -0.65625 -1.4375 -0.65625q-0.875 0 -1.46875 0.65625q-0.578125 0.65625 -0.578125 1.984375zm6.6468506 3.453125l0 -6.90625l1.0625 0l0 0.984375q0.75 -1.140625 2.1875 -1.140625q0.625 0 1.15625 0.21875q0.53125 0.21875 0.78125 0.59375q0.265625 0.359375 0.375 0.859375q0.0625 0.328125 0.0625 1.140625l0 4.25l-1.171875 0l0 -4.203125q0 -0.71875 -0.140625 -1.0625q-0.140625 -0.359375 -0.484375 -0.5625q-0.34375 -0.21875 -0.8125 -0.21875q-0.75 0 -1.296875 0.46875q-0.546875 0.46875 -0.546875 1.796875l0 3.78125l-1.171875 0z" fill-rule="nonzero"/><path fill="#000000" fill-opacity="0.0" d="m314.52222 200.12993l55.93701 0l0 20.34645l-55.93701 0z" fill-rule="evenodd"/><path fill="#000000" d="m336.33447 212.04753l1.515625 0.375q-0.46875 1.875 -1.71875 2.859375q-1.234375 0.984375 -3.015625 0.984375q-1.859375 0 -3.015625 -0.75q-1.15625 -0.765625 -1.765625 -2.1875q-0.609375 -1.4375 -0.609375 -3.078125q0 -1.796875 0.6875 -3.125q0.6875 -1.328125 1.9375 -2.015625q1.265625 -0.703125 2.78125 -0.703125q1.71875 0 2.890625 0.875q1.171875 0.875 1.640625 2.46875l-1.5 0.34375q-0.390625 -1.25 -1.15625 -1.8125q-0.75 -0.578125 -1.90625 -0.578125q-1.3125 0 -2.203125 0.640625q-0.890625 0.625 -1.25 1.703125q-0.359375 1.0625 -0.359375 2.1875q0 1.46875 0.421875 2.5625q0.4375 1.078125 1.328125 1.625q0.90625 0.53125 1.953125 0.53125q1.265625 0 2.140625 -0.734375q0.890625 -0.734375 1.203125 -2.171875zm3.3203125 4.015625l0 -11.453125l1.515625 0l0 10.09375l5.640625 0l0 1.359375l-7.15625 0zm8.8984375 0l0 -11.453125l1.515625 0l0 5.671875l5.6875 -5.671875l2.0625 0l-4.8125 4.640625l5.015625 6.8125l-2.0 0l-4.078125 -5.796875l-1.875 1.828125l0 3.96875l-1.515625 0z" fill-rule="nonzero"/><path fill="#ffffff" d="m76.305725 341.9387l4.931465 -12.8237915l4.931465 12.8237915z" fill-rule="evenodd"/><path stroke="#000000" stroke-width="1.0" stroke-linejoin="round" stroke-linecap="butt" d="m76.305725 341.9387l4.931465 -12.8237915l4.931465 12.8237915z" fill-rule="evenodd"/><path fill="#ffffff" d="m78.86859 327.50418l0 0c0 -1.3151245 1.0286789 -2.3812256 2.297615 -2.3812256l0 0c0.6093674 0 1.1937714 0.250885 1.6246567 0.69744873c0.43089294 0.44656372 0.6729584 1.0522461 0.6729584 1.6837769l0 0c0 1.3151245 -1.0286789 2.3812256 -2.297615 2.3812256l0 0c-1.2689362 0 -2.297615 -1.0661011 -2.297615 -2.3812256z" fill-rule="evenodd"/><path stroke="#000000" stroke-width="1.0" stroke-linejoin="round" stroke-linecap="butt" d="m78.86859 327.50418l0 0c0 -1.3151245 1.0286789 -2.3812256 2.297615 -2.3812256l0 0c0.6093674 0 1.1937714 0.250885 1.6246567 0.69744873c0.43089294 0.44656372 0.6729584 1.0522461 0.6729584 1.6837769l0 0c0 1.3151245 -1.0286789 2.3812256 -2.297615 2.3812256l0 0c-1.2689362 0 -2.297615 -1.0661011 -2.297615 -2.3812256z" fill-rule="evenodd"/><path fill="#000000" fill-opacity="0.0" d="m81.07087 354.33072l79.40157 0l0 21.51181l-79.40157 0z" fill-rule="evenodd"/><path fill="#000000" d="m102.6154 366.831l1.515625 0.375q-0.46875 1.875 -1.71875 2.859375q-1.234375 0.984375 -3.015625 0.984375q-1.859375 0 -3.015625 -0.75q-1.15625 -0.765625 -1.765625 -2.1875q-0.609375 -1.4375 -0.609375 -3.078125q0 -1.796875 0.6875 -3.125q0.6875 -1.328125 1.9375 -2.015625q1.265625 -0.703125 2.78125 -0.703125q1.71875 0 2.890625 0.875q1.171875 0.875 1.640625 2.46875l-1.5 0.34375q-0.390625 -1.25 -1.15625 -1.8125q-0.75 -0.578125 -1.90625 -0.578125q-1.3125 0 -2.203125 0.640625q-0.890625 0.625 -1.25 1.703125q-0.359375 1.0625 -0.359375 2.1875q0 1.46875 0.421875 2.5625q0.4375 1.078125 1.328125 1.625q0.90625 0.53125 1.953125 0.53125q1.265625 0 2.140625 -0.734375q0.890625 -0.734375 1.203125 -2.171875zm3.3203125 4.015625l0 -11.453125l1.515625 0l0 10.09375l5.640625 0l0 1.359375l-7.15625 0zm8.5078125 -5.578125q0 -2.859375 1.53125 -4.46875q1.53125 -1.609375 3.953125 -1.609375q1.578125 0 2.84375 0.765625q1.28125 0.75 1.953125 2.109375q0.671875 1.34375 0.671875 3.0625q0 1.75 -0.703125 3.125q-0.703125 1.375 -2.0 2.09375q-1.28125 0.703125 -2.78125 0.703125q-1.609375 0 -2.890625 -0.78125q-1.265625 -0.796875 -1.921875 -2.140625q-0.65625 -1.359375 -0.65625 -2.859375zm1.5625 0.015625q0 2.078125 1.109375 3.265625q1.109375 1.1875 2.796875 1.1875q1.703125 0 2.8125 -1.203125q1.109375 -1.203125 1.109375 -3.40625q0 -1.40625 -0.484375 -2.4375q-0.46875 -1.046875 -1.375 -1.625q-0.90625 -0.578125 -2.046875 -0.578125q-1.609375 0 -2.765625 1.109375q-1.15625 1.109375 -1.15625 3.6875zm19.507812 1.546875l1.515625 0.375q-0.46875 1.875 -1.71875 2.859375q-1.234375 0.984375 -3.015625 0.984375q-1.859375 0 -3.015625 -0.75q-1.15625 -0.765625 -1.765625 -2.1875q-0.609375 -1.4375 -0.609375 -3.078125q0 -1.796875 0.6875 -3.125q0.6875 -1.328125 1.9375 -2.015625q1.265625 -0.703125 2.78125 -0.703125q1.71875 0 2.890625 0.875q1.171875 0.875 1.640625 2.46875l-1.5 0.34375q-0.390625 -1.25 -1.15625 -1.8125q-0.75 -0.578125 -1.90625 -0.578125q-1.3125 0 -2.203125 0.640625q-0.890625 0.625 -1.25 1.703125q-0.359375 1.0625 -0.359375 2.1875q0 1.46875 0.421875 2.5625q0.4375 1.078125 1.328125 1.625q0.90625 0.53125 1.953125 0.53125q1.265625 0 2.140625 -0.734375q0.890625 -0.734375 1.203125 -2.171875zm3.3203125 4.015625l0 -11.453125l1.515625 0l0 5.671875l5.6875 -5.671875l2.0625 0l-4.8125 4.640625l5.015625 6.8125l-2.0 0l-4.078125 -5.796875l-1.875 1.828125l0 3.96875l-1.515625 0z" fill-rule="nonzero"/><path fill="#b6d7a8" d="m106.74016 244.79265l12.881889 5.1338654l-12.881889 5.13385z" fill-rule="evenodd"/><path stroke="#000000" stroke-width="1.0" stroke-linejoin="round" stroke-linecap="butt" d="m106.74016 244.79265l12.881889 5.1338654l-12.881889 5.13385z" fill-rule="evenodd"/><path fill="#cfe2f3" d="m76.10236 42.082676l5.1338577 -12.881889l5.1338577 12.881889z" fill-rule="evenodd"/><path stroke="#000000" stroke-width="1.0" stroke-linejoin="round" stroke-linecap="butt" d="m76.10236 42.082676l5.1338577 -12.881889l5.1338577 12.881889z" fill-rule="evenodd"/><path fill="#ead1dc" d="m310.38058 63.216534l64.22046 0l0 21.511814l-64.22046 0z" fill-rule="evenodd"/><path stroke="#000000" stroke-width="1.0" stroke-linejoin="round" stroke-linecap="butt" d="m310.38058 63.216534l64.22046 0l0 21.511814l-64.22046 0z" fill-rule="evenodd"/><path fill="#000000" fill-opacity="0.0" d="m342.4908 105.7979l0 -21.070862" fill-rule="evenodd"/><path stroke="#000000" stroke-width="1.0" stroke-linejoin="round" stroke-linecap="butt" d="m342.4908 105.7979l0 -17.643784" fill-rule="evenodd"/><path fill="#000000" stroke="#000000" stroke-width="1.0" stroke-linecap="butt" d="m342.4908 88.15412l1.1245728 1.1245804l-1.1245728 -3.0897675l-1.1245728 3.0897675z" fill-rule="evenodd"/><path fill="#000000" fill-opacity="0.0" d="m281.6404 104.67716l123.33859 0l0 26.803154l-123.33859 0z" fill-rule="evenodd"/><path fill="#000000" d="m297.34097 120.15124l1.4375 -0.125q0.09375 0.859375 0.46875 1.421875q0.375 0.546875 1.15625 0.890625q0.78125 0.328125 1.75 0.328125q0.875 0 1.53125 -0.25q0.671875 -0.265625 0.984375 -0.703125q0.328125 -0.453125 0.328125 -0.984375q0 -0.546875 -0.3125 -0.9375q-0.3125 -0.40625 -1.03125 -0.6875q-0.453125 -0.171875 -2.03125 -0.546875q-1.578125 -0.390625 -2.21875 -0.71875q-0.8125 -0.4375 -1.21875 -1.0625q-0.40625 -0.640625 -0.40625 -1.4375q0 -0.859375 0.484375 -1.609375q0.5 -0.765625 1.4375 -1.15625q0.953125 -0.390625 2.109375 -0.390625q1.28125 0 2.25 0.421875q0.96875 0.40625 1.484375 1.203125q0.53125 0.796875 0.578125 1.796875l-1.453125 0.109375q-0.125 -1.078125 -0.796875 -1.625q-0.671875 -0.5625 -2.0 -0.5625q-1.375 0 -2.0 0.5q-0.625 0.5 -0.625 1.21875q0 0.609375 0.4375 1.015625q0.4375 0.390625 2.28125 0.8125q1.859375 0.421875 2.546875 0.734375q1.0 0.453125 1.46875 1.171875q0.484375 0.703125 0.484375 1.625q0 0.90625 -0.53125 1.71875q-0.515625 0.8125 -1.5 1.265625q-0.984375 0.453125 -2.203125 0.453125q-1.5625 0 -2.609375 -0.453125q-1.046875 -0.46875 -1.65625 -1.375q-0.59375 -0.90625 -0.625 -2.0625zm16.421875 0.640625l1.390625 0.1875q-0.234375 1.421875 -1.171875 2.234375q-0.921875 0.8125 -2.28125 0.8125q-1.703125 0 -2.75 -1.109375q-1.03125 -1.125 -1.03125 -3.203125q0 -1.34375 0.4375 -2.34375q0.453125 -1.015625 1.359375 -1.515625q0.921875 -0.5 1.984375 -0.5q1.359375 0 2.21875 0.6875q0.859375 0.671875 1.09375 1.9375l-1.359375 0.203125q-0.203125 -0.828125 -0.703125 -1.25q-0.484375 -0.421875 -1.1875 -0.421875q-1.0625 0 -1.734375 0.765625q-0.65625 0.75 -0.65625 2.40625q0 1.671875 0.640625 2.4375q0.640625 0.75 1.671875 0.75q0.828125 0 1.375 -0.5q0.5625 -0.515625 0.703125 -1.578125zm2.578125 3.046875l0 -8.296875l1.265625 0l0 1.25q0.484375 -0.875 0.890625 -1.15625q0.40625 -0.28125 0.90625 -0.28125q0.703125 0 1.4375 0.453125l-0.484375 1.296875q-0.515625 -0.296875 -1.03125 -0.296875q-0.453125 0 -0.828125 0.28125q-0.359375 0.265625 -0.515625 0.765625q-0.234375 0.75 -0.234375 1.640625l0 4.34375l-1.40625 0zm11.015625 -2.671875l1.453125 0.171875q-0.34375 1.28125 -1.28125 1.984375q-0.921875 0.703125 -2.359375 0.703125q-1.828125 0 -2.890625 -1.125q-1.0625 -1.125 -1.0625 -3.140625q0 -2.09375 1.078125 -3.25q1.078125 -1.15625 2.796875 -1.15625q1.65625 0 2.703125 1.140625q1.0625 1.125 1.0625 3.171875q0 0.125 0 0.375l-6.1875 0q0.078125 1.375 0.765625 2.109375q0.703125 0.71875 1.734375 0.71875q0.78125 0 1.328125 -0.40625q0.546875 -0.40625 0.859375 -1.296875zm-4.609375 -2.28125l4.625 0q-0.09375 -1.046875 -0.53125 -1.5625q-0.671875 -0.8125 -1.734375 -0.8125q-0.96875 0 -1.640625 0.65625q-0.65625 0.640625 -0.71875 1.71875zm13.5078125 2.28125l1.453125 0.171875q-0.34375 1.28125 -1.28125 1.984375q-0.921875 0.703125 -2.359375 0.703125q-1.828125 0 -2.890625 -1.125q-1.0625 -1.125 -1.0625 -3.140625q0 -2.09375 1.078125 -3.25q1.078125 -1.15625 2.796875 -1.15625q1.65625 0 2.703125 1.140625q1.0625 1.125 1.0625 3.171875q0 0.125 0 0.375l-6.1875 0q0.078125 1.375 0.765625 2.109375q0.703125 0.71875 1.734375 0.71875q0.78125 0 1.328125 -0.40625q0.546875 -0.40625 0.859375 -1.296875zm-4.609375 -2.28125l4.625 0q-0.09375 -1.046875 -0.53125 -1.5625q-0.671875 -0.8125 -1.734375 -0.8125q-0.96875 0 -1.640625 0.65625q-0.65625 0.640625 -0.71875 1.71875zm7.8359375 4.953125l0 -8.296875l1.265625 0l0 1.171875q0.90625 -1.359375 2.640625 -1.359375q0.75 0 1.375 0.265625q0.625 0.265625 0.9375 0.703125q0.3125 0.4375 0.4375 1.046875q0.078125 0.390625 0.078125 1.359375l0 5.109375l-1.40625 0l0 -5.046875q0 -0.859375 -0.171875 -1.28125q-0.15625 -0.4375 -0.578125 -0.6875q-0.40625 -0.25 -0.96875 -0.25q-0.90625 0 -1.5625 0.578125q-0.640625 0.5625 -0.640625 2.15625l0 4.53125l-1.40625 0zm21.6875 -4.015625l1.515625 0.375q-0.46875 1.875 -1.71875 2.859375q-1.234375 0.984375 -3.015625 0.984375q-1.859375 0 -3.015625 -0.75q-1.15625 -0.765625 -1.765625 -2.1875q-0.609375 -1.4375 -0.609375 -3.078125q0 -1.796875 0.6875 -3.125q0.6875 -1.328125 1.9375 -2.015625q1.265625 -0.703125 2.78125 -0.703125q1.71875 0 2.890625 0.875q1.171875 0.875 1.640625 2.46875l-1.5 0.34375q-0.390625 -1.25 -1.15625 -1.8125q-0.75 -0.578125 -1.90625 -0.578125q-1.3125 0 -2.203125 0.640625q-0.890625 0.625 -1.25 1.703125q-0.359375 1.0625 -0.359375 2.1875q0 1.46875 0.421875 2.5625q0.4375 1.078125 1.328125 1.625q0.90625 0.53125 1.953125 0.53125q1.265625 0 2.140625 -0.734375q0.890625 -0.734375 1.203125 -2.171875zm2.6796875 -0.140625q0 -2.296875 1.28125 -3.40625q1.078125 -0.921875 2.609375 -0.921875q1.71875 0 2.796875 1.125q1.09375 1.109375 1.09375 3.09375q0 1.59375 -0.484375 2.515625q-0.484375 0.921875 -1.40625 1.4375q-0.90625 0.5 -2.0 0.5q-1.734375 0 -2.8125 -1.109375q-1.078125 -1.125 -1.078125 -3.234375zm1.453125 0q0 1.59375 0.6875 2.390625q0.703125 0.796875 1.75 0.796875q1.046875 0 1.734375 -0.796875q0.703125 -0.796875 0.703125 -2.4375q0 -1.53125 -0.703125 -2.328125q-0.6875 -0.796875 -1.734375 -0.796875q-1.046875 0 -1.75 0.796875q-0.6875 0.78125 -0.6875 2.375zm7.9453125 4.15625l0 -11.453125l1.40625 0l0 11.453125l-1.40625 0zm3.0546875 -4.15625q0 -2.296875 1.28125 -3.40625q1.078125 -0.921875 2.609375 -0.921875q1.71875 0 2.796875 1.125q1.09375 1.109375 1.09375 3.09375q0 1.59375 -0.484375 2.515625q-0.484375 0.921875 -1.40625 1.4375q-0.90625 0.5 -2.0 0.5q-1.734375 0 -2.8125 -1.109375q-1.078125 -1.125 -1.078125 -3.234375zm1.453125 0q0 1.59375 0.6875 2.390625q0.703125 0.796875 1.75 0.796875q1.046875 0 1.734375 -0.796875q0.703125 -0.796875 0.703125 -2.4375q0 -1.53125 -0.703125 -2.328125q-0.6875 -0.796875 -1.734375 -0.796875q-1.046875 0 -1.75 0.796875q-0.6875 0.78125 -0.6875 2.375zm7.9609375 4.15625l0 -8.296875l1.265625 0l0 1.25q0.484375 -0.875 0.890625 -1.15625q0.40625 -0.28125 0.90625 -0.28125q0.703125 0 1.4375 0.453125l-0.484375 1.296875q-0.515625 -0.296875 -1.03125 -0.296875q-0.453125 0 -0.828125 0.28125q-0.359375 0.265625 -0.515625 0.765625q-0.234375 0.75 -0.234375 1.640625l0 4.34375l-1.40625 0z" fill-rule="nonzero"/><path fill="#fce5cd" d="m459.94226 10.465128l117.13385 0l0 132.56693l-117.13385 0z" fill-rule="evenodd"/><path stroke="#000000" stroke-width="1.0" stroke-linejoin="round" stroke-linecap="butt" d="m459.94226 10.465128l117.13385 0l0 132.56693l-117.13385 0z" fill-rule="evenodd"/><path fill="#000000" d="m493.77576 29.447626l-2.5625 0l0 -1.84375q0 -1.109375 0.1875 -1.75q0.203125 -0.640625 0.734375 -1.140625q0.53125 -0.515625 1.34375 -0.8125l0.5 1.0625q-0.765625 0.25 -1.09375 0.703125q-0.328125 0.453125 -0.359375 1.21875l1.25 0l0 2.5625zm4.265625 0l-2.5625 0l0 -1.84375q0 -1.109375 0.1875 -1.75q0.203125 -0.640625 0.734375 -1.140625q0.546875 -0.515625 1.359375 -0.8125l0.5 1.0625q-0.765625 0.25 -1.109375 0.703125q-0.328125 0.453125 -0.34375 1.21875l1.234375 0l0 2.5625zm2.640625 -5.421875l2.6875 0l0 7.234375q0 1.7187481 0.109375 2.234373q0.171875 0.828125 0.8125 1.328125q0.65625 0.484375 1.78125 0.484375q1.15625 0 1.734375 -0.46875q0.59375 -0.46875 0.703125 -1.140625q0.125 -0.6875 0.125 -2.281248l0 -7.390625l2.6875 0l0 7.015625q0 2.406248 -0.21875 3.406248q-0.21875 0.984375 -0.8125 1.671875q-0.578125 0.6875 -1.5625 1.09375q-0.984375 0.40625 -2.5625 0.40625q-1.921875 0 -2.90625 -0.4375q-0.984375 -0.453125 -1.5625 -1.15625q-0.578125 -0.703125 -0.75 -1.484375q-0.265625 -1.140625 -0.265625 -3.390623l0 -7.125zm13.566711 13.359373l0 -13.249998l2.6875 0l0 10.999998l6.703125 0l0 2.25l-9.390625 0zm23.364685 0l-2.9375 0l-1.171875 -3.03125l-5.328125 0l-1.109375 3.03125l-2.859375 0l5.203125 -13.359373l2.84375 0l5.359375 13.359373zm-4.96875 -5.28125l-1.84375 -4.953123l-1.796875 4.953123l3.640625 0zm10.504211 -8.078123l2.5625 0l0 1.84375q0 1.109375 -0.203125 1.75q-0.1875 0.640625 -0.734375 1.15625q-0.53125 0.515625 -1.34375 0.796875l-0.5 -1.0625q0.765625 -0.25 1.09375 -0.703125q0.34375 -0.453125 0.359375 -1.21875l-1.234375 0l0 -2.5625zm-4.296875 0l2.546875 0l0 1.84375q0 1.109375 -0.1875 1.75q-0.1875 0.640625 -0.71875 1.15625q-0.53125 0.515625 -1.359375 0.796875l-0.5 -1.0625q0.78125 -0.25 1.109375 -0.703125q0.328125 -0.453125 0.34375 -1.21875l-1.234375 0l0 -2.5625z" fill-rule="nonzero"/><path fill="#f9cb9c" d="m469.2021 60.57274l98.6142 0l0 26.803146l-98.6142 0z" fill-rule="evenodd"/><path stroke="#000000" stroke-width="1.0" stroke-linejoin="round" stroke-linecap="butt" d="m469.2021 60.57274l98.6142 0l0 26.803146l-98.6142 0z" fill-rule="evenodd"/><path fill="#000000" d="m500.83987 79.05431l0 -10.484375l3.40625 0q1.921875 0 2.515625 0.15625q0.90625 0.234375 1.515625 1.03125q0.609375 0.78125 0.609375 2.03125q0 0.96875 -0.359375 1.625q-0.34375 0.65625 -0.890625 1.03125q-0.53125 0.375 -1.09375 0.5q-0.765625 0.15625 -2.203125 0.15625l-1.375 0l0 3.953125l-2.125 0zm2.125 -8.71875l0 2.984375l1.15625 0q1.25 0 1.671875 -0.15625q0.421875 -0.171875 0.65625 -0.515625q0.25 -0.359375 0.25 -0.828125q0 -0.578125 -0.34375 -0.9375q-0.328125 -0.375 -0.84375 -0.46875q-0.375 -0.078125 -1.53125 -0.078125l-1.015625 0zm7.1818542 4.8125q0 -1.0 0.484375 -1.9375q0.5 -0.9375 1.40625 -1.421875q0.90625 -0.5 2.015625 -0.5q1.71875 0 2.828125 1.125q1.109375 1.109375 1.109375 2.8125q0 1.734375 -1.125 2.875q-1.109375 1.125 -2.796875 1.125q-1.046875 0 -2.0 -0.46875q-0.9375 -0.46875 -1.4375 -1.375q-0.484375 -0.921875 -0.484375 -2.234375zm2.046875 0.109375q0 1.125 0.53125 1.734375q0.546875 0.59375 1.34375 0.59375q0.78125 0 1.3125 -0.59375q0.53125 -0.609375 0.53125 -1.75q0 -1.125 -0.53125 -1.71875q-0.53125 -0.609375 -1.3125 -0.609375q-0.796875 0 -1.34375 0.609375q-0.53125 0.59375 -0.53125 1.734375zm9.296387 3.796875l-2.015625 0l0 -7.59375l1.859375 0l0 1.078125q0.484375 -0.765625 0.859375 -1.0q0.390625 -0.25 0.875 -0.25q0.6875 0 1.328125 0.375l-0.625 1.75q-0.5 -0.328125 -0.9375 -0.328125q-0.421875 0 -0.71875 0.234375q-0.296875 0.234375 -0.46875 0.84375q-0.15625 0.609375 -0.15625 2.546875l0 2.34375zm7.2504883 -7.59375l0 1.59375l-1.375 0l0 3.0625q0 0.9375 0.03125 1.09375q0.046875 0.140625 0.1875 0.25q0.140625 0.09375 0.34375 0.09375q0.28125 0 0.8125 -0.1875l0.171875 1.5625q-0.703125 0.296875 -1.59375 0.296875q-0.546875 0 -0.984375 -0.171875q-0.421875 -0.1875 -0.640625 -0.46875q-0.203125 -0.296875 -0.28125 -0.796875q-0.0625 -0.359375 -0.0625 -1.421875l0 -3.3125l-0.921875 0l0 -1.59375l0.921875 0l0 -1.515625l2.015625 -1.171875l0 2.6875l1.375 0zm0.69317627 5.421875l2.015625 -0.296875q0.125 0.578125 0.515625 0.890625q0.40625 0.296875 1.109375 0.296875q0.78125 0 1.171875 -0.28125q0.265625 -0.203125 0.265625 -0.546875q0 -0.21875 -0.140625 -0.375q-0.15625 -0.140625 -0.671875 -0.265625q-2.4375 -0.53125 -3.078125 -0.984375q-0.90625 -0.609375 -0.90625 -1.703125q0 -0.984375 0.78125 -1.65625q0.78125 -0.671875 2.421875 -0.671875q1.546875 0 2.3125 0.515625q0.765625 0.5 1.046875 1.484375l-1.90625 0.359375q-0.109375 -0.453125 -0.453125 -0.6875q-0.34375 -0.234375 -0.96875 -0.234375q-0.796875 0 -1.140625 0.21875q-0.234375 0.15625 -0.234375 0.40625q0 0.21875 0.203125 0.375q0.28125 0.203125 1.875 0.5625q1.609375 0.359375 2.25 0.890625q0.625 0.546875 0.625 1.5q0 1.046875 -0.875 1.796875q-0.859375 0.75 -2.578125 0.75q-1.546875 0 -2.453125 -0.625q-0.90625 -0.640625 -1.1875 -1.71875z" fill-rule="nonzero"/><path fill="#f9cb9c" d="m469.2021 103.55174l98.6142 0l0 26.803146l-98.6142 0z" fill-rule="evenodd"/><path stroke="#000000" stroke-width="1.0" stroke-linejoin="round" stroke-linecap="butt" d="m469.2021 103.55174l98.6142 0l0 26.803146l-98.6142 0z" fill-rule="evenodd"/><path fill="#000000" d="m498.2017 118.17394l2.046875 0.65625q-0.46875 1.71875 -1.578125 2.546875q-1.09375 0.828125 -2.78125 0.828125q-2.078125 0 -3.4375 -1.421875q-1.34375 -1.421875 -1.34375 -3.90625q0 -2.609375 1.359375 -4.0625q1.359375 -1.453125 3.5625 -1.453125q1.921875 0 3.125 1.140625q0.71875 0.671875 1.0625 1.9375l-2.09375 0.5q-0.1875 -0.828125 -0.78125 -1.296875q-0.578125 -0.46875 -1.421875 -0.46875q-1.171875 0 -1.90625 0.84375q-0.71875 0.828125 -0.71875 2.703125q0 1.984375 0.71875 2.84375q0.71875 0.84375 1.859375 0.84375q0.84375 0 1.453125 -0.53125q0.609375 -0.546875 0.875 -1.703125zm3.396759 -0.046875q0 -1.0 0.484375 -1.9375q0.5 -0.9375 1.40625 -1.421875q0.90625 -0.5 2.015625 -0.5q1.71875 0 2.828125 1.125q1.109375 1.109375 1.109375 2.8125q0 1.734375 -1.125 2.875q-1.109375 1.125 -2.796875 1.125q-1.046875 0 -2.0 -0.46875q-0.9375 -0.46875 -1.4375 -1.375q-0.484375 -0.921875 -0.484375 -2.234375zm2.046875 0.109375q0 1.125 0.53125 1.734375q0.546875 0.59375 1.34375 0.59375q0.78125 0 1.3125 -0.59375q0.53125 -0.609375 0.53125 -1.75q0 -1.125 -0.53125 -1.71875q-0.53125 -0.609375 -1.3125 -0.609375q-0.796875 0 -1.34375 0.609375q-0.53125 0.59375 -0.53125 1.734375zm12.358887 3.796875l0 -1.140625q-0.40625 0.609375 -1.09375 0.96875q-0.671875 0.34375 -1.421875 0.34375q-0.765625 0 -1.375 -0.328125q-0.609375 -0.34375 -0.875 -0.953125q-0.265625 -0.609375 -0.265625 -1.6875l0 -4.796875l2.0 0l0 3.484375q0 1.609375 0.109375 1.96875q0.109375 0.359375 0.40625 0.578125q0.296875 0.203125 0.75 0.203125q0.515625 0 0.921875 -0.28125q0.40625 -0.28125 0.546875 -0.703125q0.15625 -0.421875 0.15625 -2.046875l0 -3.203125l2.015625 0l0 7.59375l-1.875 0zm10.874512 0l-2.015625 0l0 -3.875q0 -1.234375 -0.125 -1.59375q-0.125 -0.359375 -0.421875 -0.5625q-0.296875 -0.203125 -0.703125 -0.203125q-0.515625 0 -0.9375 0.296875q-0.40625 0.28125 -0.5625 0.75q-0.15625 0.46875 -0.15625 1.75l0 3.4375l-2.015625 0l0 -7.59375l1.875 0l0 1.109375q1.0 -1.28125 2.5 -1.28125q0.671875 0 1.21875 0.234375q0.546875 0.234375 0.828125 0.609375q0.296875 0.375 0.40625 0.84375q0.109375 0.46875 0.109375 1.359375l0 4.71875zm5.5150757 -7.59375l0 1.59375l-1.375 0l0 3.0625q0 0.9375 0.03125 1.09375q0.046875 0.140625 0.1875 0.25q0.140625 0.09375 0.34375 0.09375q0.28125 0 0.8125 -0.1875l0.171875 1.5625q-0.703125 0.296875 -1.59375 0.296875q-0.546875 0 -0.984375 -0.171875q-0.421875 -0.1875 -0.640625 -0.46875q-0.203125 -0.296875 -0.28125 -0.796875q-0.0625 -0.359375 -0.0625 -1.421875l0 -3.3125l-0.921875 0l0 -1.59375l0.921875 0l0 -1.515625l2.015625 -1.171875l0 2.6875l1.375 0zm5.8025513 5.171875l2.0 0.34375q-0.375 1.09375 -1.21875 1.671875q-0.828125 0.578125 -2.078125 0.578125q-1.984375 0 -2.9375 -1.296875q-0.75 -1.03125 -0.75 -2.625q0 -1.875 0.984375 -2.9375q0.984375 -1.078125 2.5 -1.078125q1.6875 0 2.671875 1.125q0.984375 1.109375 0.9375 3.421875l-5.03125 0q0.015625 0.890625 0.484375 1.390625q0.46875 0.5 1.15625 0.5q0.46875 0 0.78125 -0.25q0.328125 -0.265625 0.5 -0.84375zm0.109375 -2.03125q-0.015625 -0.875 -0.453125 -1.328125q-0.421875 -0.453125 -1.03125 -0.453125q-0.671875 0 -1.09375 0.484375q-0.421875 0.46875 -0.421875 1.296875l3.0 0zm5.572937 4.453125l-2.015625 0l0 -7.59375l1.859375 0l0 1.078125q0.484375 -0.765625 0.859375 -1.0q0.390625 -0.25 0.875 -0.25q0.6875 0 1.328125 0.375l-0.625 1.75q-0.5 -0.328125 -0.9375 -0.328125q-0.421875 0 -0.71875 0.234375q-0.296875 0.234375 -0.46875 0.84375q-0.15625 0.609375 -0.15625 2.546875l0 2.34375z" fill-rule="nonzero"/><path fill="#000000" fill-opacity="0.0" d="m469.2021 73.97431l-94.61417 0" fill-rule="evenodd"/><path stroke="#000000" stroke-width="1.0" stroke-linejoin="round" stroke-linecap="butt" d="m469.2021 73.97431l-91.18707 0" fill-rule="evenodd"/><path fill="#000000" stroke="#000000" stroke-width="1.0" stroke-linecap="butt" d="m378.015 73.97431l1.1245728 -1.1245804l-3.0897522 1.1245804l3.0897522 1.1245804z" fill-rule="evenodd"/><path fill="#000000" fill-opacity="0.0" d="m518.5092 130.35489l0 19.496063l-113.543335 0" fill-rule="evenodd"/><path stroke="#000000" stroke-width="1.0" stroke-linejoin="round" stroke-linecap="butt" d="m518.5092 130.35489l0 19.496063l-110.11624 0" fill-rule="evenodd"/><path fill="#000000" stroke="#000000" stroke-width="1.0" stroke-linecap="butt" d="m408.39297 149.85095l1.1245728 -1.1245728l-3.0897522 1.1245728l3.0897522 1.124588z" fill-rule="evenodd"/><path fill="#000000" fill-opacity="0.0" d="m216.79002 191.21523l0.35153198 0l0 -27.149612l63.679977 0" fill-rule="evenodd"/><path stroke="#000000" stroke-width="1.0" stroke-linejoin="round" stroke-linecap="butt" d="m216.79002 191.21523l0.35154724 0l0 -27.149612l60.25287 0" fill-rule="evenodd"/><path fill="#000000" stroke="#000000" stroke-width="1.0" stroke-linecap="butt" d="m277.39444 164.06561l-1.1245728 1.124588l3.0897522 -1.124588l-3.0897522 -1.1245728z" fill-rule="evenodd"/><path fill="#000000" fill-opacity="0.0" d="m214.75713 144.16577l64.220474 0l0 20.346466l-64.220474 0z" fill-rule="evenodd"/><path fill="#000000" d="m226.6369 160.099l4.421875 -5.96875l-3.90625 -5.484375l1.8125 0l2.078125 2.9375q0.640625 0.90625 0.921875 1.40625q0.375 -0.625 0.90625 -1.3125l2.296875 -3.03125l1.65625 0l-4.03125 5.390625l4.34375 6.0625l-1.875 0l-2.890625 -4.09375q-0.234375 -0.34375 -0.5 -0.765625q-0.375 0.625 -0.546875 0.859375l-2.875 4.0l-1.8125 0zm22.648438 -1.359375q-0.703125 0.78125 -1.53125 1.171875q-0.8125 0.390625 -1.765625 0.390625q-1.75 0 -2.78125 -1.203125q-0.84375 -0.96875 -0.84375 -2.15625q0 -1.0625 0.6875 -1.921875q0.6875 -0.859375 2.046875 -1.5q-0.78125 -0.890625 -1.046875 -1.4375q-0.25 -0.5625 -0.25 -1.078125q0 -1.03125 0.8125 -1.796875q0.8125 -0.765625 2.03125 -0.765625q1.171875 0 1.921875 0.71875q0.75 0.71875 0.75 1.734375q0 1.625 -2.171875 2.78125l2.0625 2.625q0.34375 -0.6875 0.546875 -1.59375l1.453125 0.3125q-0.375 1.5 -1.015625 2.46875q0.796875 1.046875 1.796875 1.75l-0.953125 1.125q-0.84375 -0.546875 -1.75 -1.625zm-2.859375 -5.96875q0.90625 -0.53125 1.171875 -0.9375q0.28125 -0.40625 0.28125 -0.90625q0 -0.578125 -0.375 -0.953125q-0.375 -0.375 -0.921875 -0.375q-0.578125 0 -0.953125 0.375q-0.375 0.359375 -0.375 0.890625q0 0.265625 0.125 0.5625q0.140625 0.296875 0.421875 0.625l0.625 0.71875zm1.96875 4.859375l-2.578125 -3.1875q-1.140625 0.671875 -1.546875 1.265625q-0.390625 0.578125 -0.390625 1.140625q0 0.703125 0.546875 1.453125q0.5625 0.75 1.578125 0.75q0.640625 0 1.3125 -0.390625q0.671875 -0.40625 1.078125 -1.03125zm12.578125 2.46875l0 -4.859375l-4.421875 -6.59375l1.84375 0l2.265625 3.453125q0.625 0.96875 1.15625 1.9375q0.515625 -0.90625 1.25 -2.03125l2.21875 -3.359375l1.765625 0l-4.5625 6.59375l0 4.859375l-1.515625 0z" fill-rule="nonzero"/><path fill="#000000" fill-opacity="0.0" d="m367.58325 73.2464l104.47244 0l0 20.346458l-104.47244 0z" fill-rule="evenodd"/><path fill="#000000" d="m380.9829 88.69963l0 -10.484375l3.9375 0q1.203125 0 1.921875 0.3125q0.734375 0.3125 1.140625 0.984375q0.40625 0.65625 0.40625 1.375q0 0.671875 -0.375 1.265625q-0.359375 0.59375 -1.09375 0.96875q0.953125 0.28125 1.46875 0.953125q0.515625 0.671875 0.515625 1.578125q0 0.75 -0.3125 1.390625q-0.3125 0.625 -0.78125 0.96875q-0.453125 0.34375 -1.140625 0.515625q-0.6875 0.171875 -1.6875 0.171875l-4.0 0zm1.390625 -6.078125l2.265625 0q0.921875 0 1.3125 -0.125q0.53125 -0.15625 0.796875 -0.515625q0.28125 -0.375 0.28125 -0.921875q0 -0.53125 -0.25 -0.921875q-0.25 -0.390625 -0.71875 -0.53125q-0.46875 -0.15625 -1.59375 -0.15625l-2.09375 0l0 3.171875zm0 4.84375l2.609375 0q0.671875 0 0.9375 -0.046875q0.484375 -0.09375 0.796875 -0.296875q0.328125 -0.203125 0.53125 -0.578125q0.21875 -0.390625 0.21875 -0.890625q0 -0.578125 -0.3125 -1.015625q-0.296875 -0.4375 -0.828125 -0.609375q-0.53125 -0.171875 -1.53125 -0.171875l-2.421875 0l0 3.609375zm7.7912292 -2.5625q0 -2.109375 1.171875 -3.125q0.984375 -0.84375 2.390625 -0.84375q1.578125 0 2.5625 1.03125q1.0 1.015625 1.0 2.828125q0 1.46875 -0.4375 2.3125q-0.4375 0.828125 -1.28125 1.296875q-0.84375 0.46875 -1.84375 0.46875q-1.59375 0 -2.578125 -1.015625q-0.984375 -1.03125 -0.984375 -2.953125zm1.328125 0q0 1.453125 0.625 2.1875q0.640625 0.71875 1.609375 0.71875q0.96875 0 1.59375 -0.71875q0.640625 -0.734375 0.640625 -2.234375q0 -1.40625 -0.640625 -2.125q-0.640625 -0.734375 -1.59375 -0.734375q-0.96875 0 -1.609375 0.71875q-0.625 0.71875 -0.625 2.1875zm7.291748 3.796875l0 -7.59375l1.15625 0l0 1.140625q0.453125 -0.796875 0.828125 -1.046875q0.375 -0.265625 0.8125 -0.265625q0.65625 0 1.328125 0.40625l-0.4375 1.203125q-0.46875 -0.28125 -0.953125 -0.28125q-0.421875 0 -0.765625 0.25q-0.328125 0.25 -0.46875 0.703125q-0.21875 0.6875 -0.21875 1.5l0 3.984375l-1.28125 0zm9.818146 0l0 -0.953125q-0.71875 1.125 -2.125 1.125q-0.90625 0 -1.671875 -0.5q-0.75 -0.5 -1.171875 -1.390625q-0.421875 -0.90625 -0.421875 -2.078125q0 -1.140625 0.375 -2.0625q0.390625 -0.921875 1.140625 -1.40625q0.765625 -0.5 1.703125 -0.5q0.6875 0 1.21875 0.296875q0.53125 0.28125 0.875 0.734375l0 -3.75l1.28125 0l0 10.484375l-1.203125 0zm-4.0625 -3.796875q0 1.46875 0.609375 2.1875q0.625 0.71875 1.453125 0.71875q0.84375 0 1.4375 -0.6875q0.59375 -0.6875 0.59375 -2.109375q0 -1.5625 -0.609375 -2.28125q-0.59375 -0.734375 -1.484375 -0.734375q-0.84375 0 -1.421875 0.703125q-0.578125 0.703125 -0.578125 2.203125zm12.494843 1.34375l1.328125 0.171875q-0.3125 1.171875 -1.171875 1.8125q-0.84375 0.640625 -2.171875 0.640625q-1.671875 0 -2.65625 -1.015625q-0.96875 -1.03125 -0.96875 -2.890625q0 -1.921875 0.984375 -2.96875q1.0 -1.0625 2.578125 -1.0625q1.515625 0 2.484375 1.03125q0.96875 1.03125 0.96875 2.921875q0 0.109375 -0.015625 0.34375l-5.65625 0q0.0625 1.25 0.703125 1.921875q0.640625 0.65625 1.59375 0.65625q0.703125 0 1.203125 -0.359375q0.5 -0.375 0.796875 -1.203125zm-4.234375 -2.078125l4.25 0q-0.09375 -0.953125 -0.484375 -1.4375q-0.625 -0.75 -1.609375 -0.75q-0.875 0 -1.484375 0.59375q-0.609375 0.59375 -0.671875 1.59375zm7.166748 4.53125l0 -7.59375l1.15625 0l0 1.140625q0.453125 -0.796875 0.828125 -1.046875q0.375 -0.265625 0.8125 -0.265625q0.65625 0 1.328125 0.40625l-0.4375 1.203125q-0.46875 -0.28125 -0.953125 -0.28125q-0.421875 0 -0.765625 0.25q-0.328125 0.25 -0.46875 0.703125q-0.21875 0.6875 -0.21875 1.5l0 3.984375l-1.28125 0zm13.921356 -2.78125l1.265625 0.15625q-0.203125 1.3125 -1.0625 2.0625q-0.84375 0.734375 -2.09375 0.734375q-1.5625 0 -2.515625 -1.015625q-0.9375 -1.03125 -0.9375 -2.921875q0 -1.234375 0.40625 -2.15625q0.40625 -0.921875 1.234375 -1.375q0.84375 -0.46875 1.8125 -0.46875q1.25 0 2.03125 0.625q0.78125 0.625 1.015625 1.765625l-1.265625 0.203125q-0.171875 -0.765625 -0.625 -1.15625q-0.453125 -0.390625 -1.09375 -0.390625q-0.984375 0 -1.59375 0.703125q-0.609375 0.703125 -0.609375 2.203125q0 1.53125 0.578125 2.234375q0.59375 0.6875 1.546875 0.6875q0.75 0 1.265625 -0.453125q0.515625 -0.46875 0.640625 -1.4375zm1.890625 -1.015625q0 -2.109375 1.171875 -3.125q0.984375 -0.84375 2.390625 -0.84375q1.578125 0 2.5625 1.03125q1.0 1.015625 1.0 2.828125q0 1.46875 -0.4375 2.3125q-0.4375 0.828125 -1.28125 1.296875q-0.84375 0.46875 -1.84375 0.46875q-1.59375 0 -2.578125 -1.015625q-0.984375 -1.03125 -0.984375 -2.953125zm1.328125 0q0 1.453125 0.625 2.1875q0.640625 0.71875 1.609375 0.71875q0.96875 0 1.59375 -0.71875q0.640625 -0.734375 0.640625 -2.234375q0 -1.40625 -0.640625 -2.125q-0.640625 -0.734375 -1.59375 -0.734375q-0.96875 0 -1.609375 0.71875q-0.625 0.71875 -0.625 2.1875zm7.276123 3.796875l0 -10.484375l1.28125 0l0 10.484375l-1.28125 0zm2.803009 -3.796875q0 -2.109375 1.171875 -3.125q0.984375 -0.84375 2.390625 -0.84375q1.578125 0 2.5625 1.03125q1.0 1.015625 1.0 2.828125q0 1.46875 -0.4375 2.3125q-0.4375 0.828125 -1.28125 1.296875q-0.84375 0.46875 -1.84375 0.46875q-1.59375 0 -2.578125 -1.015625q-0.984375 -1.03125 -0.984375 -2.953125zm1.328125 0q0 1.453125 0.625 2.1875q0.640625 0.71875 1.609375 0.71875q0.96875 0 1.59375 -0.71875q0.640625 -0.734375 0.640625 -2.234375q0 -1.40625 -0.640625 -2.125q-0.640625 -0.734375 -1.59375 -0.734375q-0.96875 0 -1.609375 0.71875q-0.625 0.71875 -0.625 2.1875zm7.291748 3.796875l0 -7.59375l1.15625 0l0 1.140625q0.453125 -0.796875 0.828125 -1.046875q0.375 -0.265625 0.8125 -0.265625q0.65625 0 1.328125 0.40625l-0.4375 1.203125q-0.46875 -0.28125 -0.953125 -0.28125q-0.421875 0 -0.765625 0.25q-0.328125 0.25 -0.46875 0.703125q-0.21875 0.6875 -0.21875 1.5l0 3.984375l-1.28125 0z" fill-rule="nonzero"/></g></svg>